<?xml version="1.0" encoding="utf-8"?>
<!-- Generator: Adobe Illustrator 22.1.0, SVG Export Plug-In . SVG Version: 6.00 Build 0)  -->
<svg version="1.1" id="Calque_1" xmlns="http://www.w3.org/2000/svg" xmlns:xlink="http://www.w3.org/1999/xlink" x="0px" y="0px"
	 viewBox="0 0 1913.6 3587.3" style="enable-background:new 0 0 1913.6 3587.3;" xml:space="preserve">
<style type="text/css">
	.st0{fill:none;stroke:#FF0000;stroke-miterlimit:10;}
</style>
<g id="_x30_">
	<g id="ATTRIB_34_">
	</g>
	<g id="ATTRIB_35_">
	</g>
	<g id="ATTRIB_36_">
	</g>
	<g id="ATTRIB_37_">
	</g>
	<g id="ATTRIB_38_">
	</g>
	<g id="ATTRIB_39_">
	</g>
	<g id="ATTRIB_40_">
	</g>
	<g id="ATTRIB_45_">
	</g>
	<g id="ATTRIB_46_">
	</g>
	<g id="ATTRIB_47_">
	</g>
</g>
<g>
	<line class="st0" x1="1834.5" y1="1395.1" x2="133.7" y2="1395.1"/>
	<line class="st0" x1="1821.7" y1="128.8" x2="120.9" y2="128.8"/>
	<line class="st0" x1="120.9" y1="128.8" x2="120.9" y2="979.2"/>
	<line class="st0" x1="1821.7" y1="979.2" x2="120.9" y2="979.2"/>
	<line class="st0" x1="1821.7" y1="128.8" x2="1821.7" y2="979.2"/>
	<line class="st0" x1="133.7" y1="1395.1" x2="133.7" y2="2245.5"/>
	<line class="st0" x1="1834.5" y1="2245.5" x2="133.7" y2="2245.5"/>
	<line class="st0" x1="1834.5" y1="1395.1" x2="1834.5" y2="2245.5"/>
	<line class="st0" x1="1840.6" y1="2630.5" x2="139.9" y2="2630.5"/>
	<line class="st0" x1="139.9" y1="2630.5" x2="139.9" y2="3480.9"/>
	<line class="st0" x1="1840.6" y1="3480.9" x2="139.9" y2="3480.9"/>
	<line class="st0" x1="1840.6" y1="2630.5" x2="1840.6" y2="3480.9"/>
	<line class="st0" x1="1650.5" y1="1652.1" x2="1649.4" y2="1652.3"/>
	<line class="st0" x1="1728.1" y1="1854.2" x2="1727.6" y2="1853.2"/>
	<line class="st0" x1="1648.4" y1="1652.8" x2="1649.4" y2="1652.3"/>
	<line class="st0" x1="1555.6" y1="1660.2" x2="1556.6" y2="1660.5"/>
	<line class="st0" x1="1653.2" y1="1659.8" x2="1654" y2="1659.1"/>
	<line class="st0" x1="1729.7" y1="1855.7" x2="1728.8" y2="1855.1"/>
	<line class="st0" x1="1649" y1="1660.1" x2="1650" y2="1660.5"/>
	<line class="st0" x1="1652.6" y1="1652.5" x2="1651.6" y2="1652.1"/>
	<line class="st0" x1="1650.5" y1="1652.1" x2="1651.6" y2="1652.1"/>
	<line class="st0" x1="1735.4" y1="1853.8" x2="1735.8" y2="1852.7"/>
	<line class="st0" x1="1654.3" y1="1653.9" x2="1653.6" y2="1653.1"/>
	<line class="st0" x1="1557.7" y1="1660.5" x2="1558.8" y2="1660.3"/>
	<line class="st0" x1="1735.4" y1="1853.8" x2="1734.8" y2="1854.7"/>
	<line class="st0" x1="1654" y1="1659.1" x2="1654.7" y2="1658.1"/>
	<line class="st0" x1="1655" y1="1657.1" x2="1655" y2="1656"/>
	<line class="st0" x1="1559.8" y1="1659.7" x2="1560.6" y2="1658.9"/>
	<line class="st0" x1="1733.5" y1="1848.1" x2="1732.4" y2="1847.7"/>
	<line class="st0" x1="1727.4" y1="1852.2" x2="1727.6" y2="1853.2"/>
	<line class="st0" x1="1727.4" y1="1852.2" x2="1727.4" y2="1851"/>
	<line class="st0" x1="1557.7" y1="1660.5" x2="1556.6" y2="1660.5"/>
	<line class="st0" x1="1731.9" y1="1856.1" x2="1733" y2="1855.9"/>
	<line class="st0" x1="1734" y1="1855.4" x2="1733" y2="1855.9"/>
	<line class="st0" x1="1559.8" y1="1659.7" x2="1558.8" y2="1660.3"/>
	<line class="st0" x1="1733.5" y1="1848.1" x2="1734.4" y2="1848.7"/>
	<line class="st0" x1="1727.8" y1="1850" x2="1728.4" y2="1849.1"/>
	<line class="st0" x1="1728.1" y1="1854.2" x2="1728.8" y2="1855.1"/>
	<line class="st0" x1="1731.9" y1="1856.1" x2="1730.8" y2="1856.1"/>
	<line class="st0" x1="1729.2" y1="1848.3" x2="1728.4" y2="1849.1"/>
	<line class="st0" x1="1731.3" y1="1847.6" x2="1730.2" y2="1847.9"/>
	<line class="st0" x1="1731.3" y1="1847.6" x2="1732.4" y2="1847.7"/>
	<line class="st0" x1="1729.2" y1="1848.3" x2="1730.2" y2="1847.9"/>
	<line class="st0" x1="1727.8" y1="1850" x2="1727.4" y2="1851"/>
	<line class="st0" x1="1734" y1="1855.4" x2="1734.8" y2="1854.7"/>
	<line class="st0" x1="1729.7" y1="1855.7" x2="1730.8" y2="1856.1"/>
	<line class="st0" x1="1647.3" y1="1658.7" x2="1646.8" y2="1657.7"/>
	<line class="st0" x1="1553.8" y1="1658.8" x2="1554.6" y2="1659.6"/>
	<line class="st0" x1="1553.8" y1="1658.8" x2="1553.3" y2="1657.9"/>
	<line class="st0" x1="1647" y1="1654.5" x2="1647.6" y2="1653.5"/>
	<line class="st0" x1="1554.7" y1="1652.9" x2="1553.9" y2="1653.7"/>
	<line class="st0" x1="1553.4" y1="1654.6" x2="1553.9" y2="1653.7"/>
	<line class="st0" x1="1553" y1="1656.8" x2="1553.3" y2="1657.9"/>
	<line class="st0" x1="1553" y1="1656.8" x2="1553.1" y2="1655.7"/>
	<line class="st0" x1="1553.4" y1="1654.6" x2="1553.1" y2="1655.7"/>
	<line class="st0" x1="1646.6" y1="1656.6" x2="1646.8" y2="1657.7"/>
	<line class="st0" x1="1653.6" y1="1653.1" x2="1652.6" y2="1652.5"/>
	<line class="st0" x1="1735.8" y1="1852.7" x2="1735.8" y2="1851.6"/>
	<line class="st0" x1="1647.3" y1="1658.7" x2="1648.1" y2="1659.5"/>
	<line class="st0" x1="1647" y1="1654.5" x2="1646.6" y2="1655.5"/>
	<line class="st0" x1="1735.1" y1="1849.5" x2="1734.4" y2="1848.7"/>
	<line class="st0" x1="1655" y1="1656" x2="1654.8" y2="1654.9"/>
	<line class="st0" x1="1654.3" y1="1653.9" x2="1654.8" y2="1654.9"/>
	<line class="st0" x1="1646.6" y1="1656.6" x2="1646.6" y2="1655.5"/>
	<line class="st0" x1="1654.7" y1="1658.1" x2="1655" y2="1657.1"/>
	<line class="st0" x1="1735.8" y1="1851.6" x2="1735.6" y2="1850.5"/>
	<line class="st0" x1="1735.1" y1="1849.5" x2="1735.6" y2="1850.5"/>
	<line class="st0" x1="1649" y1="1660.1" x2="1648.1" y2="1659.5"/>
	<line class="st0" x1="1555.6" y1="1660.2" x2="1554.6" y2="1659.6"/>
	<line class="st0" x1="1556.8" y1="1652.1" x2="1555.7" y2="1652.3"/>
	<line class="st0" x1="1554.7" y1="1652.9" x2="1555.7" y2="1652.3"/>
	<line class="st0" x1="1648.4" y1="1652.8" x2="1647.6" y2="1653.5"/>
	<line class="st0" x1="1556.8" y1="1652.1" x2="1557.9" y2="1652.1"/>
	<line class="st0" x1="1560.7" y1="1653.8" x2="1561.2" y2="1654.7"/>
	<line class="st0" x1="1560.7" y1="1653.8" x2="1559.9" y2="1653"/>
	<line class="st0" x1="1651.1" y1="1660.5" x2="1650" y2="1660.5"/>
	<line class="st0" x1="1651.1" y1="1660.5" x2="1652.2" y2="1660.3"/>
	<line class="st0" x1="1653.2" y1="1659.8" x2="1652.2" y2="1660.3"/>
	<line class="st0" x1="1561.2" y1="1658" x2="1560.6" y2="1658.9"/>
	<line class="st0" x1="1561.2" y1="1658" x2="1561.5" y2="1656.9"/>
	<line class="st0" x1="1561.5" y1="1656.9" x2="1561.5" y2="1655.8"/>
	<line class="st0" x1="1559" y1="1652.4" x2="1559.9" y2="1653"/>
	<line class="st0" x1="1559" y1="1652.4" x2="1557.9" y2="1652.1"/>
	<line class="st0" x1="1561.5" y1="1655.8" x2="1561.2" y2="1654.7"/>
	<path class="st0" d="M1465.4,1996.2c-0.2-0.1-0.3-0.2-0.4-0.4"/>
	<path class="st0" d="M1470.3,1988.1c-0.6-0.2-1.2-0.4-1.9-0.4c-1.5,0-2.8,0.7-3.7,1.8"/>
	<path class="st0" d="M1473.2,1992.8c0-0.1,0-0.2,0-0.3c0,0,0,0,0,0"/>
	<path class="st0" d="M1473.2,1992.8c0,0.5-0.1,0.9-0.3,1.4"/>
	<path class="st0" d="M1463.8,1993.8c0.2,0.8,0.6,1.5,1.1,2"/>
	<path class="st0" d="M1472.6,1994.8c0,0,0.1-0.1,0.1-0.1"/>
	<path class="st0" d="M1473.2,1992.3c0,0.1,0,0.1,0,0.2"/>
	<path class="st0" d="M1470.3,1988.1c0.8,0.4,1.5,1,2,1.7"/>
	<path class="st0" d="M1464,1990.6c0.1-0.3,0.3-0.5,0.4-0.8"/>
	<path class="st0" d="M1469.7,1997.1C1469.7,1997.1,1469.7,1997.1,1469.7,1997.1"/>
	<path class="st0" d="M1463.6,1992.5c0-0.7,0.1-1.3,0.4-1.9"/>
	<path class="st0" d="M1470.7,1996.7c0.1,0,0.2-0.1,0.2-0.1"/>
	<path class="st0" d="M1468.7,1997.3c-0.1,0-0.1,0-0.2,0"/>
	<path class="st0" d="M1468.7,1997.3c0.4,0,0.7-0.1,1-0.2"/>
	<path class="st0" d="M1468.5,1997.3C1468.4,1997.3,1468.4,1997.3,1468.5,1997.3c-0.8,0-1.5-0.2-2.2-0.5"/>
	<path class="st0" d="M1473,1991.2c0.1,0.3,0.2,0.7,0.2,1"/>
	<path class="st0" d="M1472.6,1994.8c-0.4,0.7-0.9,1.3-1.6,1.7"/>
	<path class="st0" d="M1473,1991.2C1473,1991.2,1473,1991.2,1473,1991.2"/>
	<path class="st0" d="M1466.3,1996.8c-0.2-0.1-0.4-0.2-0.6-0.3"/>
	<path class="st0" d="M1472.4,1989.9c0.1,0.1,0.1,0.2,0.2,0.3"/>
	<path class="st0" d="M1463.8,1993.8C1463.8,1993.8,1463.8,1993.8,1463.8,1993.8"/>
	<path class="st0" d="M1463.6,1992.5c0,0.4,0.1,0.9,0.2,1.3"/>
	<path class="st0" d="M1310.7,1997.2c2.1-0.5,3.7-2.4,3.7-4.7c0-2.6-2.2-4.8-4.8-4.8c-0.6,0-1.3,0.1-1.8,0.4"/>
	<path class="st0" d="M1304.8,1992.6c0,0.1,0,0.2,0,0.3"/>
	<path class="st0" d="M1305.9,1989.4c0.1-0.1,0.2-0.2,0.3-0.3"/>
	<path class="st0" d="M1305.4,1990.2c-0.4,0.7-0.6,1.4-0.6,2.3c0,0,0,0,0,0.1"/>
	<path class="st0" d="M1305.1,1994.1c-0.1-0.1-0.1-0.3-0.1-0.4"/>
	<path class="st0" d="M1310.2,1997.2c-0.1,0-0.3,0-0.4,0"/>
	<path class="st0" d="M1307,1988.5c0.2-0.1,0.4-0.2,0.6-0.3"/>
	<path class="st0" d="M1305.4,1990.2c0,0,0-0.1,0.1-0.1"/>
	<path class="st0" d="M1309.7,1997.3c0,0-0.1,0-0.1,0c-2,0-3.8-1.4-4.5-3.2"/>
	<line class="st0" x1="1463.7" y1="1991.3" x2="1463.6" y2="1992.5"/>
	<line class="st0" x1="1463.6" y1="1992.5" x2="1463.8" y2="1993.8"/>
	<line class="st0" x1="1463.8" y1="1993.8" x2="1463.8" y2="1993.8"/>
	<path class="st0" d="M1464,1990.6C1464,1990.6,1464,1990.6,1464,1990.6"/>
	<line class="st0" x1="1464.2" y1="1990.1" x2="1464" y2="1990.6"/>
	<line class="st0" x1="1464" y1="1990.6" x2="1463.7" y2="1991.3"/>
	<line class="st0" x1="1463.8" y1="1993.8" x2="1463.8" y2="1993.8"/>
	<line class="st0" x1="1463.8" y1="1993.8" x2="1464.3" y2="1994.9"/>
	<path class="st0" d="M1464.7,1989.5c-0.1,0.1-0.2,0.2-0.3,0.3"/>
	<line class="st0" x1="1465" y1="1989.1" x2="1464.7" y2="1989.5"/>
	<line class="st0" x1="1464.4" y1="1989.8" x2="1464.2" y2="1990.1"/>
	<line class="st0" x1="1465" y1="1995.8" x2="1465" y2="1995.9"/>
	<line class="st0" x1="1465" y1="1995.8" x2="1464.3" y2="1994.9"/>
	<line class="st0" x1="1465.9" y1="1988.3" x2="1465" y2="1989.1"/>
	<line class="st0" x1="1465.4" y1="1996.2" x2="1465" y2="1995.9"/>
	<path class="st0" d="M1465.7,1996.5c-0.1-0.1-0.2-0.2-0.3-0.3"/>
	<line class="st0" x1="1465.7" y1="1996.5" x2="1466" y2="1996.7"/>
	<line class="st0" x1="1465.9" y1="1988.3" x2="1467.1" y2="1987.8"/>
	<line class="st0" x1="1466.3" y1="1996.8" x2="1466" y2="1996.7"/>
	<line class="st0" x1="1467.2" y1="1997.1" x2="1466.3" y2="1996.8"/>
	<line class="st0" x1="1467.1" y1="1987.8" x2="1468.3" y2="1987.6"/>
	<line class="st0" x1="1468.5" y1="1997.3" x2="1468.5" y2="1997.3"/>
	<line class="st0" x1="1468.5" y1="1997.3" x2="1467.2" y2="1997.1"/>
	<line class="st0" x1="1468.3" y1="1987.6" x2="1469.6" y2="1987.8"/>
	<line class="st0" x1="1469.7" y1="1997.1" x2="1468.7" y2="1997.3"/>
	<line class="st0" x1="1469.7" y1="1997.1" x2="1469.7" y2="1997.1"/>
	<line class="st0" x1="1468.7" y1="1997.3" x2="1468.5" y2="1997.3"/>
	<path class="st0" d="M1470.3,1988.1C1470.3,1988.1,1470.3,1988.1,1470.3,1988.1"/>
	<line class="st0" x1="1469.6" y1="1987.8" x2="1470.3" y2="1988.1"/>
	<line class="st0" x1="1470.3" y1="1988.1" x2="1470.8" y2="1988.3"/>
	<path class="st0" d="M1470.7,1996.7c-0.3,0.2-0.7,0.3-1,0.4"/>
	<line class="st0" x1="1470.7" y1="1996.7" x2="1470.9" y2="1996.6"/>
	<line class="st0" x1="1469.7" y1="1997.1" x2="1469.7" y2="1997.1"/>
	<line class="st0" x1="1470.8" y1="1988.3" x2="1471.8" y2="1989"/>
	<line class="st0" x1="1470.9" y1="1996.6" x2="1471" y2="1996.5"/>
	<line class="st0" x1="1471.8" y1="1995.8" x2="1471" y2="1996.5"/>
	<path class="st0" d="M1472.3,1989.8C1472.4,1989.8,1472.4,1989.8,1472.3,1989.8"/>
	<line class="st0" x1="1472.4" y1="1989.9" x2="1472.5" y2="1990"/>
	<line class="st0" x1="1471.8" y1="1989" x2="1472.3" y2="1989.8"/>
	<line class="st0" x1="1472.6" y1="1994.8" x2="1471.8" y2="1995.8"/>
	<line class="st0" x1="1472.6" y1="1994.8" x2="1472.6" y2="1994.8"/>
	<path class="st0" d="M1473,1991.2c-0.1-0.4-0.2-0.7-0.4-1"/>
	<line class="st0" x1="1472.5" y1="1990" x2="1472.6" y2="1990.2"/>
	<line class="st0" x1="1473" y1="1991.2" x2="1473" y2="1991.2"/>
	<line class="st0" x1="1472.9" y1="1994.2" x2="1473.1" y2="1993.7"/>
	<path class="st0" d="M1472.9,1994.2c-0.1,0.2-0.1,0.3-0.2,0.5"/>
	<line class="st0" x1="1472.6" y1="1994.8" x2="1472.6" y2="1994.7"/>
	<line class="st0" x1="1473.2" y1="1992.4" x2="1473.2" y2="1992.5"/>
	<line class="st0" x1="1473.2" y1="1992.8" x2="1473.1" y2="1993.7"/>
	<line class="st0" x1="1473.2" y1="1992.8" x2="1473.2" y2="1992.5"/>
	<line class="st0" x1="1473" y1="1991.2" x2="1473.2" y2="1992.3"/>
	<line class="st0" x1="1473.2" y1="1992.4" x2="1473.2" y2="1992.3"/>
	<line class="st0" x1="1473" y1="1991.2" x2="1473" y2="1991.2"/>
	<line class="st0" x1="1304.8" y1="1992.6" x2="1305" y2="1991.4"/>
	<line class="st0" x1="1304.8" y1="1992.6" x2="1304.8" y2="1992.6"/>
	<line class="st0" x1="1305" y1="1993.6" x2="1305" y2="1993.9"/>
	<path class="st0" d="M1304.8,1992.8c0,0.3,0.1,0.6,0.1,0.8"/>
	<line class="st0" x1="1304.8" y1="1992.6" x2="1304.8" y2="1992.8"/>
	<line class="st0" x1="1305.4" y1="1990.2" x2="1305.4" y2="1990.2"/>
	<line class="st0" x1="1305.4" y1="1990.2" x2="1305" y2="1991.4"/>
	<line class="st0" x1="1305.6" y1="1995" x2="1305.1" y2="1994.1"/>
	<line class="st0" x1="1305" y1="1993.9" x2="1305.1" y2="1994.1"/>
	<line class="st0" x1="1305.4" y1="1990.1" x2="1305.4" y2="1990.2"/>
	<line class="st0" x1="1306.1" y1="1989.2" x2="1305.9" y2="1989.4"/>
	<path class="st0" d="M1305.4,1990.1c0.1-0.3,0.3-0.5,0.5-0.7"/>
	<line class="st0" x1="1305.6" y1="1995" x2="1306.4" y2="1996"/>
	<line class="st0" x1="1307" y1="1988.5" x2="1307.1" y2="1988.4"/>
	<path class="st0" d="M1307,1988.5c-0.3,0.2-0.6,0.4-0.8,0.7"/>
	<line class="st0" x1="1306.2" y1="1989.1" x2="1306.1" y2="1989.2"/>
	<line class="st0" x1="1307.4" y1="1996.7" x2="1306.4" y2="1996"/>
	<line class="st0" x1="1308.3" y1="1987.8" x2="1307.8" y2="1988.1"/>
	<path class="st0" d="M1307.8,1988.1c0,0-0.1,0-0.1,0.1"/>
	<line class="st0" x1="1307.1" y1="1988.4" x2="1307.7" y2="1988.1"/>
	<line class="st0" x1="1307.4" y1="1996.7" x2="1308.6" y2="1997.1"/>
	<line class="st0" x1="1309.5" y1="1987.6" x2="1308.3" y2="1987.8"/>
	<line class="st0" x1="1309.7" y1="1997.3" x2="1309.8" y2="1997.3"/>
	<line class="st0" x1="1309.7" y1="1997.3" x2="1308.6" y2="1997.1"/>
	<line class="st0" x1="1310.8" y1="1987.8" x2="1309.5" y2="1987.6"/>
	<path class="st0" d="M1310.7,1997.2c-0.2,0-0.3,0.1-0.5,0.1"/>
	<line class="st0" x1="1311.1" y1="1997.1" x2="1310.7" y2="1997.2"/>
	<line class="st0" x1="1310.2" y1="1997.2" x2="1309.8" y2="1997.3"/>
	<line class="st0" x1="1310.8" y1="1987.8" x2="1311.9" y2="1988.2"/>
	<line class="st0" x1="1312.2" y1="1996.6" x2="1311.1" y2="1997.1"/>
	<line class="st0" x1="1311.9" y1="1988.2" x2="1313" y2="1988.9"/>
	<line class="st0" x1="1313.2" y1="1995.8" x2="1312.2" y2="1996.6"/>
	<line class="st0" x1="1313" y1="1988.9" x2="1313.8" y2="1989.9"/>
	<line class="st0" x1="1313.9" y1="1994.7" x2="1313.2" y2="1995.8"/>
	<line class="st0" x1="1313.8" y1="1989.9" x2="1314.3" y2="1991.1"/>
	<line class="st0" x1="1314.4" y1="1993.6" x2="1313.9" y2="1994.7"/>
	<line class="st0" x1="1314.5" y1="1992.3" x2="1314.4" y2="1993.6"/>
	<line class="st0" x1="1314.3" y1="1991.1" x2="1314.5" y2="1992.3"/>
	<line class="st0" x1="1455.2" y1="1953.2" x2="1322.8" y2="1953.2"/>
	<line class="st0" x1="1322.8" y1="1953.2" x2="1322.8" y2="2031.7"/>
	<line class="st0" x1="1322.8" y1="2031.7" x2="1455.2" y2="2031.7"/>
	<line class="st0" x1="1455.2" y1="1953.2" x2="1455.2" y2="2031.7"/>
	<line class="st0" x1="239.2" y1="2117.6" x2="247.7" y2="2117.6"/>
	<line class="st0" x1="247.7" y1="2080.8" x2="239.2" y2="2080.8"/>
	<line class="st0" x1="239.2" y1="2080.8" x2="239.2" y2="2117.6"/>
	<line class="st0" x1="247.7" y1="1947.5" x2="247.7" y2="1995.7"/>
	<line class="st0" x1="247.7" y1="2080.8" x2="247.7" y2="2032.6"/>
	<line class="st0" x1="247.7" y1="1995.7" x2="239.2" y2="1995.7"/>
	<line class="st0" x1="239.2" y1="1995.7" x2="239.2" y2="2032.6"/>
	<line class="st0" x1="247.7" y1="2032.6" x2="239.2" y2="2032.6"/>
	<line class="st0" x1="1747.2" y1="2140.3" x2="247.7" y2="2140.3"/>
	<line class="st0" x1="1747.2" y1="2140.3" x2="1747.2" y2="2117.6"/>
	<line class="st0" x1="1747.2" y1="2080.8" x2="1747.2" y2="2032.6"/>
	<line class="st0" x1="1724.5" y1="1924.9" x2="1653.6" y2="1924.9"/>
	<line class="st0" x1="1653.6" y1="1916.3" x2="1653.6" y2="1924.9"/>
	<line class="st0" x1="1597" y1="1924.9" x2="1526.1" y2="1924.9"/>
	<line class="st0" x1="1526.1" y1="1916.3" x2="1526.1" y2="1924.9"/>
	<line class="st0" x1="1241.2" y1="1924.9" x2="1170.3" y2="1924.9"/>
	<line class="st0" x1="1170.3" y1="1916.3" x2="1170.3" y2="1924.9"/>
	<line class="st0" x1="824.5" y1="1924.9" x2="753.6" y2="1924.9"/>
	<line class="st0" x1="753.6" y1="1916.3" x2="753.6" y2="1924.9"/>
	<line class="st0" x1="468.8" y1="1924.9" x2="397.9" y2="1924.9"/>
	<line class="st0" x1="397.9" y1="1916.3" x2="397.9" y2="1924.9"/>
	<line class="st0" x1="397.9" y1="1916.3" x2="341.2" y2="1916.3"/>
	<line class="st0" x1="341.2" y1="1916.3" x2="341.2" y2="1924.9"/>
	<line class="st0" x1="341.2" y1="1924.9" x2="270.3" y2="1924.9"/>
	<line class="st0" x1="270.3" y1="1916.3" x2="270.3" y2="1924.9"/>
	<line class="st0" x1="270.3" y1="1916.3" x2="239.2" y2="1916.3"/>
	<line class="st0" x1="247.7" y1="2117.6" x2="247.7" y2="2140.3"/>
	<line class="st0" x1="239.2" y1="1916.3" x2="239.2" y2="1947.5"/>
	<line class="st0" x1="247.7" y1="1947.5" x2="239.2" y2="1947.5"/>
	<line class="st0" x1="468.8" y1="1916.3" x2="468.8" y2="1924.9"/>
	<line class="st0" x1="753.6" y1="1916.3" x2="468.8" y2="1916.3"/>
	<line class="st0" x1="824.5" y1="1916.3" x2="824.5" y2="1924.9"/>
	<line class="st0" x1="1170.3" y1="1916.3" x2="824.5" y2="1916.3"/>
	<line class="st0" x1="1241.2" y1="1916.3" x2="1241.2" y2="1924.9"/>
	<line class="st0" x1="1526.1" y1="1916.3" x2="1241.2" y2="1916.3"/>
	<line class="st0" x1="1597" y1="1916.3" x2="1597" y2="1924.9"/>
	<line class="st0" x1="1653.6" y1="1916.3" x2="1597" y2="1916.3"/>
	<line class="st0" x1="1747.2" y1="1947.5" x2="1755.7" y2="1947.5"/>
	<line class="st0" x1="1755.7" y1="1916.3" x2="1755.7" y2="1947.5"/>
	<line class="st0" x1="1755.7" y1="1916.3" x2="1724.5" y2="1916.3"/>
	<line class="st0" x1="1747.2" y1="1995.7" x2="1747.2" y2="1947.5"/>
	<line class="st0" x1="1724.5" y1="1924.9" x2="1724.5" y2="1916.3"/>
	<line class="st0" x1="1747.2" y1="2032.6" x2="1755.7" y2="2032.6"/>
	<line class="st0" x1="1755.7" y1="2032.6" x2="1755.7" y2="1995.7"/>
	<line class="st0" x1="1747.2" y1="1995.7" x2="1755.7" y2="1995.7"/>
	<line class="st0" x1="1755.7" y1="2117.6" x2="1747.2" y2="2117.6"/>
	<line class="st0" x1="1755.7" y1="2117.6" x2="1755.7" y2="2080.8"/>
	<line class="st0" x1="1747.2" y1="2080.8" x2="1755.7" y2="2080.8"/>
	<line class="st0" x1="397.9" y1="1490.5" x2="397.9" y2="1499"/>
	<line class="st0" x1="1747.2" y1="1767.5" x2="1747.2" y2="1838.4"/>
	<line class="st0" x1="1597" y1="1889.4" x2="1597" y2="1880.9"/>
	<line class="st0" x1="247.7" y1="1541.5" x2="247.7" y2="1612.4"/>
	<line class="st0" x1="1755.7" y1="1612.4" x2="1747.2" y2="1612.4"/>
	<line class="st0" x1="1747.2" y1="1541.5" x2="1747.2" y2="1612.4"/>
	<line class="st0" x1="1724.5" y1="1499" x2="1755.7" y2="1499"/>
	<line class="st0" x1="1653.6" y1="1490.5" x2="1653.6" y2="1499"/>
	<line class="st0" x1="1597" y1="1499" x2="1653.6" y2="1499"/>
	<line class="st0" x1="1170.3" y1="1490.5" x2="1170.3" y2="1499"/>
	<line class="st0" x1="824.5" y1="1499" x2="1170.3" y2="1499"/>
	<line class="st0" x1="753.6" y1="1490.5" x2="753.6" y2="1499"/>
	<line class="st0" x1="468.8" y1="1499" x2="753.6" y2="1499"/>
	<line class="st0" x1="247.7" y1="1541.5" x2="239.2" y2="1541.5"/>
	<line class="st0" x1="270.3" y1="1490.5" x2="270.3" y2="1499"/>
	<line class="st0" x1="341.2" y1="1880.9" x2="397.9" y2="1880.9"/>
	<line class="st0" x1="1724.5" y1="1880.9" x2="1724.5" y2="1889.4"/>
	<line class="st0" x1="247.7" y1="1767.5" x2="247.7" y2="1838.4"/>
	<line class="st0" x1="1755.7" y1="1838.4" x2="1747.2" y2="1838.4"/>
	<line class="st0" x1="341.2" y1="1499" x2="397.9" y2="1499"/>
	<line class="st0" x1="1241.2" y1="1880.9" x2="1526.1" y2="1880.9"/>
	<line class="st0" x1="397.9" y1="1889.4" x2="397.9" y2="1880.9"/>
	<line class="st0" x1="468.8" y1="1880.9" x2="753.6" y2="1880.9"/>
	<line class="st0" x1="753.6" y1="1889.4" x2="753.6" y2="1880.9"/>
	<line class="st0" x1="824.5" y1="1889.4" x2="824.5" y2="1880.9"/>
	<line class="st0" x1="824.5" y1="1880.9" x2="1170.3" y2="1880.9"/>
	<line class="st0" x1="1241.2" y1="1889.4" x2="1241.2" y2="1880.9"/>
	<line class="st0" x1="1653.6" y1="1880.9" x2="1597" y2="1880.9"/>
	<line class="st0" x1="1526.1" y1="1490.5" x2="1526.1" y2="1499"/>
	<line class="st0" x1="1241.2" y1="1499" x2="1526.1" y2="1499"/>
	<line class="st0" x1="247.7" y1="1767.5" x2="239.2" y2="1767.5"/>
	<line class="st0" x1="1597" y1="1499" x2="1597" y2="1490.5"/>
	<line class="st0" x1="1724.5" y1="1499" x2="1724.5" y2="1490.5"/>
	<line class="st0" x1="824.5" y1="1499" x2="824.5" y2="1490.5"/>
	<line class="st0" x1="1241.2" y1="1499" x2="1241.2" y2="1490.5"/>
	<line class="st0" x1="341.2" y1="1499" x2="341.2" y2="1490.5"/>
	<line class="st0" x1="468.8" y1="1499" x2="468.8" y2="1490.5"/>
	<line class="st0" x1="1170.3" y1="1490.5" x2="1241.2" y2="1490.5"/>
	<line class="st0" x1="1526.1" y1="1490.5" x2="1597" y2="1490.5"/>
	<line class="st0" x1="1653.6" y1="1490.5" x2="1724.5" y2="1490.5"/>
	<line class="st0" x1="270.3" y1="1490.5" x2="341.2" y2="1490.5"/>
	<line class="st0" x1="753.6" y1="1490.5" x2="824.5" y2="1490.5"/>
	<line class="st0" x1="397.9" y1="1490.5" x2="468.8" y2="1490.5"/>
	<line class="st0" x1="239.2" y1="1838.4" x2="239.2" y2="1880.9"/>
	<line class="st0" x1="247.7" y1="1838.4" x2="239.2" y2="1838.4"/>
	<line class="st0" x1="247.7" y1="1612.4" x2="239.2" y2="1612.4"/>
	<line class="st0" x1="239.2" y1="1499" x2="270.3" y2="1499"/>
	<line class="st0" x1="239.2" y1="1499" x2="239.2" y2="1541.5"/>
	<line class="st0" x1="239.2" y1="1612.4" x2="239.2" y2="1767.5"/>
	<line class="st0" x1="1653.6" y1="1889.4" x2="1724.5" y2="1889.4"/>
	<line class="st0" x1="270.3" y1="1889.4" x2="270.3" y2="1880.9"/>
	<line class="st0" x1="468.8" y1="1889.4" x2="468.8" y2="1880.9"/>
	<line class="st0" x1="1653.6" y1="1889.4" x2="1653.6" y2="1880.9"/>
	<line class="st0" x1="1526.1" y1="1889.4" x2="1526.1" y2="1880.9"/>
	<line class="st0" x1="341.2" y1="1889.4" x2="341.2" y2="1880.9"/>
	<line class="st0" x1="1170.3" y1="1889.4" x2="1170.3" y2="1880.9"/>
	<line class="st0" x1="1597" y1="1889.4" x2="1526.1" y2="1889.4"/>
	<line class="st0" x1="1241.2" y1="1889.4" x2="1170.3" y2="1889.4"/>
	<line class="st0" x1="341.2" y1="1889.4" x2="270.3" y2="1889.4"/>
	<line class="st0" x1="824.5" y1="1889.4" x2="753.6" y2="1889.4"/>
	<line class="st0" x1="468.8" y1="1889.4" x2="397.9" y2="1889.4"/>
	<line class="st0" x1="1755.7" y1="1838.4" x2="1755.7" y2="1880.9"/>
	<line class="st0" x1="1747.2" y1="1541.5" x2="1755.7" y2="1541.5"/>
	<line class="st0" x1="1755.7" y1="1767.5" x2="1747.2" y2="1767.5"/>
	<line class="st0" x1="1755.7" y1="1612.4" x2="1755.7" y2="1767.5"/>
	<line class="st0" x1="1755.7" y1="1541.5" x2="1755.7" y2="1499"/>
	<line class="st0" x1="270.3" y1="1880.9" x2="239.2" y2="1880.9"/>
	<line class="st0" x1="1755.7" y1="1880.9" x2="1724.5" y2="1880.9"/>
	<path class="st0" d="M308.5,1629.2c-0.1-0.6-0.3-1.2-0.6-1.7"/>
	<path class="st0" d="M305.9,1625.6c0.7,0.3,1.2,0.8,1.7,1.4"/>
	<path class="st0" d="M299.1,1630.8c0-0.2-0.1-0.4-0.1-0.6"/>
	<path class="st0" d="M307.6,1627c0.1,0.2,0.2,0.3,0.3,0.5"/>
	<path class="st0" d="M299.2,1631.1c0.5,2.1,2.4,3.6,4.6,3.6c2.6,0,4.8-2.1,4.8-4.8"/>
	<path class="st0" d="M308.6,1629.9c0-0.2,0-0.5-0.1-0.7"/>
	<path class="st0" d="M299.9,1627.1c-0.6,0.8-0.9,1.7-0.9,2.8c0,0.1,0,0.1,0,0.2"/>
	<path class="st0" d="M302.2,1625.4c-0.7,0.3-1.3,0.6-1.8,1.2"/>
	<path class="st0" d="M305.9,1625.6C305.9,1625.6,305.9,1625.6,305.9,1625.6"/>
	<path class="st0" d="M299.9,1627.1c0.1-0.2,0.3-0.4,0.5-0.6"/>
	<path class="st0" d="M303.6,1625.1c0.1,0,0.1,0,0.2,0c0.7,0,1.4,0.2,2.1,0.5"/>
	<path class="st0" d="M303.1,1625.2c0.2,0,0.3,0,0.5-0.1"/>
	<path class="st0" d="M302.2,1625.4c0,0,0.1,0,0.1,0"/>
	<path class="st0" d="M304.6,1755.1c-0.3,0-0.5,0.1-0.8,0.1"/>
	<path class="st0" d="M305.6,1754.8c-0.2,0.1-0.4,0.1-0.5,0.2"/>
	<path class="st0" d="M300.1,1747.5c0-0.1,0.1-0.1,0.1-0.2"/>
	<polyline class="st0" points="303.8,1755.2 303.8,1755.2 303.8,1755.2 	"/>
	<path class="st0" d="M308.6,1750.4c0,1.7-0.8,3.1-2.1,3.9"/>
	<path class="st0" d="M300.1,1753.4c-0.1-0.1-0.1-0.2-0.2-0.2"/>
	<path class="st0" d="M307.7,1747.6c-0.1-0.1-0.2-0.2-0.2-0.3"/>
	<path class="st0" d="M299,1750.6c0,0.2,0,0.4,0.1,0.6"/>
	<path class="st0" d="M299.2,1751.7c0,0.2,0.1,0.3,0.2,0.5"/>
	<path class="st0" d="M303.8,1755.2c-1.3,0-2.4-0.5-3.3-1.3"/>
	<path class="st0" d="M308.2,1748.6c0.1,0.2,0.1,0.3,0.2,0.5"/>
	<path class="st0" d="M308.5,1749.6c0,0.3,0.1,0.6,0.1,0.8"/>
	<path class="st0" d="M306.3,1746.3c-0.3-0.2-0.5-0.3-0.8-0.4"/>
	<path class="st0" d="M302.6,1745.8c-0.7,0.2-1.4,0.5-1.9,1"/>
	<path class="st0" d="M299.4,1748.5c-0.2,0.6-0.4,1.2-0.4,1.9c0,0.1,0,0.1,0,0.2"/>
	<path class="st0" d="M306.5,1746.5c0.2,0.1,0.4,0.3,0.6,0.5"/>
	<path class="st0" d="M302.9,1745.7c0.2,0,0.4-0.1,0.6-0.1"/>
	<path class="st0" d="M305.5,1745.9c-0.5-0.2-1.1-0.3-1.7-0.3c-0.1,0-0.1,0-0.2,0"/>
	<path class="st0" d="M299.4,1748.5c0-0.1,0.1-0.1,0.1-0.2"/>
	<path class="st0" d="M1358.9,1755.1c-0.2,0-0.3,0-0.5,0"/>
	<path class="st0" d="M1357.7,1745.7c0.2,0,0.4-0.1,0.5-0.1"/>
	<path class="st0" d="M1363,1751.3c0,0.1-0.1,0.2-0.1,0.4"/>
	<path class="st0" d="M1353.6,1751.2c0-0.2-0.1-0.4-0.1-0.6"/>
	<path class="st0" d="M1353.8,1752.2c-0.1-0.2-0.2-0.5-0.2-0.7"/>
	<path class="st0" d="M1361.7,1747c-0.2-0.2-0.4-0.3-0.5-0.4"/>
	<path class="st0" d="M1357.3,1755.1c0.3,0.1,0.6,0.1,1,0.1c0,0,0.1,0,0.1,0"/>
	<path class="st0" d="M1353.8,1752.2c0.3,0.7,0.7,1.2,1.2,1.7"/>
	<path class="st0" d="M1357.3,1755.1c-0.1,0-0.3-0.1-0.4-0.1"/>
	<path class="st0" d="M1363.1,1750.3c0-0.2,0-0.3-0.1-0.5"/>
	<path class="st0" d="M1359.3,1745.7c-0.3-0.1-0.6-0.1-1-0.1c0,0-0.1,0-0.1,0"/>
	<path class="st0" d="M1356.4,1754.8c-0.2-0.1-0.4-0.2-0.7-0.4"/>
	<path class="st0" d="M1363,1751.3c0.1-0.3,0.1-0.6,0.1-0.9c0,0,0-0.1,0-0.1"/>
	<path class="st0" d="M1355.5,1754.3c-0.2-0.1-0.3-0.3-0.5-0.4"/>
	<path class="st0" d="M1359.4,1755.1c1.5-0.3,2.7-1.4,3.3-2.7"/>
	<path class="st0" d="M1360.2,1746c0.2,0.1,0.4,0.2,0.7,0.4"/>
	<path class="st0" d="M1359.3,1745.7c0.1,0,0.3,0.1,0.4,0.1"/>
	<path class="st0" d="M1353.8,1748.8C1353.8,1748.8,1353.8,1748.8,1353.8,1748.8"/>
	<path class="st0" d="M1355.1,1746.9c-0.6,0.5-1,1.2-1.3,1.9"/>
	<path class="st0" d="M1353.8,1748.8c-0.1,0.2-0.2,0.5-0.2,0.7"/>
	<path class="st0" d="M1361.8,1747.1c0.6,0.6,1,1.4,1.2,2.2"/>
	<path class="st0" d="M1355.7,1746.4c0.2-0.2,0.5-0.3,0.7-0.4"/>
	<path class="st0" d="M1355.1,1746.9c0.2-0.2,0.4-0.4,0.6-0.5"/>
	<path class="st0" d="M1353.6,1749.6c-0.1,0.3-0.1,0.6-0.1,0.8c0,0,0,0.1,0,0.1"/>
	<path class="st0" d="M1356.5,1746c0.2-0.1,0.5-0.2,0.8-0.2"/>
	<path class="st0" d="M1353.9,1631.7c-0.1-0.2-0.2-0.5-0.2-0.7"/>
	<path class="st0" d="M1358.2,1625.1c0,0,0.1,0,0.1,0c0.8,0,1.6,0.2,2.2,0.6"/>
	<path class="st0" d="M1360.9,1633.9c-0.8,0.5-1.6,0.8-2.6,0.8c-1.9,0-3.7-1.2-4.4-2.9"/>
	<path class="st0" d="M1353.6,1630.4c0-0.1,0-0.3,0-0.4"/>
	<path class="st0" d="M1363.1,1630.4c0-0.2,0-0.3,0-0.5c0,0,0,0,0,0"/>
	<path class="st0" d="M1362.9,1628.6C1362.9,1628.6,1362.9,1628.6,1362.9,1628.6"/>
	<path class="st0" d="M1363.1,1629.6c0-0.4-0.1-0.7-0.2-1"/>
	<path class="st0" d="M1362.9,1628.6c-0.1-0.4-0.2-0.7-0.4-1"/>
	<path class="st0" d="M1353.7,1628.8c0,0.1-0.1,0.2-0.1,0.4"/>
	<path class="st0" d="M1353.6,1629.1c0,0.3-0.1,0.5-0.1,0.8c0,0,0,0.1,0,0.1"/>
	<path class="st0" d="M1353.7,1628.8c0.4-1.5,1.6-2.8,3.1-3.4"/>
	<path class="st0" d="M1363.1,1630.4c-0.1,1.1-0.6,2.2-1.3,2.9"/>
	<path class="st0" d="M1356.7,1625.4c0.2-0.1,0.3-0.1,0.5-0.1"/>
	<path class="st0" d="M1362.3,1627.3c0,0.1,0.1,0.2,0.1,0.2"/>
	<path class="st0" d="M1363.1,1629.9c0-0.1,0-0.1,0-0.2"/>
	<path class="st0" d="M1357.8,1625.2c0.1,0,0.3,0,0.4,0"/>
	<path class="st0" d="M1360.7,1625.8c0,0-0.1-0.1-0.1-0.1"/>
	<path class="st0" d="M1361.4,1626.2c0.1,0.1,0.2,0.2,0.3,0.2"/>
	<path class="st0" d="M682.3,1632.1c0-0.1,0.1-0.2,0.1-0.3"/>
	<path class="st0" d="M681.9,1627.1c0,0-0.1-0.1-0.1-0.1"/>
	<path class="st0" d="M676.5,1625.4c0.5-0.2,1-0.3,1.5-0.3c1.5,0,2.9,0.8,3.8,1.9"/>
	<path class="st0" d="M682.4,1628.1c0.1,0.1,0.1,0.3,0.1,0.4"/>
	<path class="st0" d="M679.1,1634.6c0.7-0.2,1.4-0.5,2-0.9"/>
	<path class="st0" d="M678,1634.7c0.3,0,0.6,0,0.8-0.1"/>
	<path class="st0" d="M682.8,1629.7c0-0.2,0-0.4-0.1-0.5"/>
	<path class="st0" d="M681.7,1633C681.7,1633,681.7,1633,681.7,1633"/>
	<path class="st0" d="M678,1634.7c-2.3,0-4.2-1.7-4.7-3.8"/>
	<polyline class="st0" points="678,1634.7 678,1634.7 678,1634.7 	"/>
	<path class="st0" d="M673.3,1630.8c-0.1-0.3-0.1-0.6-0.1-0.9"/>
	<path class="st0" d="M673.2,1629.9c0-0.5,0.1-0.9,0.2-1.4"/>
	<path class="st0" d="M676.5,1625.4c-0.1,0-0.2,0.1-0.3,0.1"/>
	<path class="st0" d="M675.1,1626.1c-0.6,0.5-1.1,1.1-1.4,1.8"/>
	<path class="st0" d="M673.4,1628.5c0.1-0.2,0.2-0.4,0.2-0.6"/>
	<path class="st0" d="M682.4,1631.8c0.2-0.6,0.4-1.2,0.4-1.9c0-0.1,0-0.1,0-0.2"/>
	<path class="st0" d="M675.1,1626.1c0,0,0.1-0.1,0.1-0.1"/>
	<polyline class="st0" points="678,1755.2 678,1755.2 678,1755.2 	"/>
	<path class="st0" d="M682.5,1752.2c0-0.1,0.1-0.2,0.1-0.3"/>
	<path class="st0" d="M674.3,1747.3c-0.1,0.1-0.2,0.2-0.3,0.3"/>
	<path class="st0" d="M680.7,1746.5c0.1,0,0.1,0.1,0.2,0.1"/>
	<path class="st0" d="M682.8,1750.6c0,0.2,0,0.4-0.1,0.6"/>
	<path class="st0" d="M682.2,1748.1c0.1,0.2,0.2,0.4,0.3,0.6"/>
	<path class="st0" d="M682.8,1750.6c0-0.1,0-0.1,0-0.2c0-0.6-0.1-1.2-0.3-1.7"/>
	<path class="st0" d="M674.7,1746.9c0.2-0.2,0.3-0.3,0.5-0.4"/>
	<path class="st0" d="M678.2,1745.6c-0.1,0-0.1,0-0.2,0c-0.6,0-1.2,0.1-1.7,0.3"/>
	<path class="st0" d="M682.2,1748.1c-0.3-0.6-0.8-1.1-1.3-1.5"/>
	<path class="st0" d="M673.6,1748.6c-0.1,0.1-0.1,0.3-0.1,0.4"/>
	<path class="st0" d="M678.2,1745.6c0.2,0,0.4,0,0.6,0.1"/>
	<path class="st0" d="M676.3,1745.9c-0.3,0.1-0.6,0.2-0.8,0.4"/>
	<path class="st0" d="M678,1755.2c-0.3,0-0.6,0-0.8-0.1"/>
	<path class="st0" d="M679.8,1746c-0.2-0.1-0.4-0.1-0.5-0.2"/>
	<path class="st0" d="M673.9,1752.9c-0.5-0.7-0.7-1.6-0.7-2.5"/>
	<path class="st0" d="M681.9,1753.1c0.2-0.3,0.4-0.6,0.5-1"/>
	<path class="st0" d="M681.9,1753.2c-0.4,0.6-1,1.1-1.7,1.4"/>
	<path class="st0" d="M681.9,1753.1c0,0-0.1,0.1-0.1,0.1"/>
	<path class="st0" d="M673.3,1749.7c0,0.2-0.1,0.5-0.1,0.7"/>
	<path class="st0" d="M676.7,1755c-0.2-0.1-0.4-0.1-0.5-0.2"/>
	<path class="st0" d="M675.3,1754.3c-0.1-0.1-0.2-0.2-0.3-0.3"/>
	<path class="st0" d="M674.5,1753.7c-0.2-0.2-0.3-0.3-0.4-0.5"/>
	<path class="st0" d="M680.2,1754.7c-0.7,0.3-1.4,0.5-2.2,0.5"/>
	<path class="st0" d="M979.3,1630c0,0.1,0,0.2,0,0.3"/>
	<path class="st0" d="M979.9,1627.7c0,0,0-0.1,0.1-0.1"/>
	<path class="st0" d="M979.6,1631.6c-0.1-0.2-0.1-0.4-0.2-0.6"/>
	<path class="st0" d="M987.9,1632.9c-0.3,0.4-0.6,0.8-1.1,1"/>
	<path class="st0" d="M988.2,1632.5c0.1-0.2,0.2-0.3,0.3-0.5"/>
	<path class="st0" d="M979.9,1627.6c0.4-0.7,0.9-1.3,1.6-1.7"/>
	<path class="st0" d="M979.9,1627.7c-0.4,0.7-0.6,1.4-0.6,2.2c0,0,0,0,0,0.1"/>
	<path class="st0" d="M986.8,1633.9c-0.8,0.5-1.7,0.8-2.7,0.8c-1.9,0-3.5-1.1-4.3-2.8"/>
	<path class="st0" d="M982.8,1625.3C982.8,1625.3,982.8,1625.3,982.8,1625.3"/>
	<path class="st0" d="M982.8,1625.3c-0.4,0.1-0.7,0.2-1,0.4"/>
	<path class="st0" d="M983.8,1625.1c-0.4,0-0.7,0.1-1,0.2"/>
	<path class="st0" d="M988.9,1629.9c0,0.6-0.1,1.2-0.3,1.7"/>
	<path class="st0" d="M986.9,1626c0.3,0.2,0.6,0.5,0.9,0.9"/>
	<path class="st0" d="M984,1625.1C984.1,1625.1,984.1,1625.1,984,1625.1c0.8,0,1.5,0.2,2.1,0.5"/>
	<path class="st0" d="M983.8,1625.1c0.1,0,0.1,0,0.2,0"/>
	<path class="st0" d="M986.8,1625.9c-0.2-0.1-0.4-0.2-0.6-0.3"/>
	<path class="st0" d="M988.1,1627.2c0.4,0.6,0.6,1.2,0.8,1.9"/>
	<path class="st0" d="M988.9,1629.9c0-0.3,0-0.5-0.1-0.7"/>
	<path class="st0" d="M981.5,1625.9c0.1,0,0.1-0.1,0.2-0.1"/>
	<path class="st0" d="M979.3,1749.9c0,0.2,0,0.3,0,0.5c0,0,0,0,0,0"/>
	<path class="st0" d="M986.7,1754.4c-0.1,0-0.1,0.1-0.2,0.1"/>
	<path class="st0" d="M988.1,1753c-0.4,0.6-0.9,1-1.4,1.4"/>
	<path class="st0" d="M985.6,1754.9c0.3-0.1,0.6-0.2,0.9-0.4"/>
	<path class="st0" d="M979.6,1752c0-0.1-0.1-0.3-0.1-0.4"/>
	<path class="st0" d="M985.6,1754.9c-0.1,0-0.2,0.1-0.3,0.1"/>
	<path class="st0" d="M988.1,1747.8c0.1,0.2,0.2,0.4,0.3,0.5"/>
	<path class="st0" d="M988.9,1750.4c0-0.6-0.1-1.2-0.4-1.8"/>
	<path class="st0" d="M986.2,1746.1c0.1,0,0.2,0.1,0.3,0.2"/>
	<path class="st0" d="M979.6,1748.9c-0.1,0.3-0.2,0.6-0.2,1"/>
	<path class="st0" d="M979.3,1750.7c0-0.1,0-0.2,0-0.3"/>
	<path class="st0" d="M988.9,1750.8c-0.1,0.8-0.3,1.6-0.7,2.3"/>
	<path class="st0" d="M984.4,1745.6c0.5,0,0.9,0.1,1.4,0.3"/>
	<path class="st0" d="M979.9,1752.7c0.1,0.1,0.1,0.2,0.2,0.3"/>
	<path class="st0" d="M983.8,1745.6c0.1,0,0.1,0,0.2,0"/>
	<path class="st0" d="M984.4,1745.6c-0.1,0-0.2,0-0.3,0c0,0,0,0,0,0"/>
	<path class="st0" d="M983.4,1755.1c0.2,0,0.4,0.1,0.7,0.1c0,0,0.1,0,0.1,0"/>
	<path class="st0" d="M988.9,1750.4C988.9,1750.4,988.9,1750.4,988.9,1750.4c0,0.2,0,0.3,0,0.4"/>
	<path class="st0" d="M983.4,1755.1c-1-0.1-2-0.6-2.7-1.3"/>
	<path class="st0" d="M982.8,1745.8c-0.4,0.1-0.7,0.2-1,0.4"/>
	<path class="st0" d="M982.8,1745.8c0.3-0.1,0.7-0.2,1-0.2"/>
	<path class="st0" d="M982.8,1745.8C982.8,1745.8,982.8,1745.8,982.8,1745.8"/>
	<path class="st0" d="M981.5,1746.4c0.1,0,0.2-0.1,0.2-0.1"/>
	<path class="st0" d="M980.4,1747.3c0.1-0.1,0.2-0.2,0.2-0.3"/>
	<path class="st0" d="M979.9,1748.2c0-0.1,0.1-0.1,0.1-0.2"/>
	<path class="st0" d="M984.6,1755.2c-0.1,0-0.3,0-0.4,0"/>
	<path class="st0" d="M986.9,1746.5c0.4,0.3,0.8,0.7,1.1,1.1"/>
	<line class="st0" x1="299.1" y1="1629.1" x2="299" y2="1630.1"/>
	<line class="st0" x1="299" y1="1630.1" x2="299" y2="1630.4"/>
	<line class="st0" x1="299.2" y1="1631.1" x2="299.3" y2="1631.6"/>
	<path class="st0" d="M299.2,1631.1c0-0.1-0.1-0.2-0.1-0.3"/>
	<line class="st0" x1="299.1" y1="1630.8" x2="299" y2="1630.4"/>
	<line class="st0" x1="299.1" y1="1629.1" x2="299.5" y2="1627.9"/>
	<line class="st0" x1="299.3" y1="1631.6" x2="299.9" y2="1632.7"/>
	<line class="st0" x1="299.5" y1="1627.9" x2="299.9" y2="1627.1"/>
	<line class="st0" x1="299.9" y1="1627.1" x2="300.1" y2="1626.8"/>
	<line class="st0" x1="299.9" y1="1632.7" x2="300.7" y2="1633.6"/>
	<line class="st0" x1="300.4" y1="1626.6" x2="300.1" y2="1626.8"/>
	<line class="st0" x1="300.4" y1="1626.6" x2="301.1" y2="1626"/>
	<line class="st0" x1="300.7" y1="1633.6" x2="301.8" y2="1634.3"/>
	<line class="st0" x1="302.2" y1="1625.4" x2="302.2" y2="1625.4"/>
	<line class="st0" x1="301.1" y1="1626" x2="302.2" y2="1625.4"/>
	<line class="st0" x1="303" y1="1634.7" x2="301.8" y2="1634.3"/>
	<path class="st0" d="M302.3,1625.4c0.3-0.1,0.5-0.2,0.8-0.2"/>
	<line class="st0" x1="303.1" y1="1625.2" x2="303.4" y2="1625.1"/>
	<line class="st0" x1="302.3" y1="1625.4" x2="302.2" y2="1625.4"/>
	<line class="st0" x1="303" y1="1634.7" x2="304.2" y2="1634.8"/>
	<line class="st0" x1="303.6" y1="1625.1" x2="303.4" y2="1625.1"/>
	<line class="st0" x1="303.6" y1="1625.1" x2="304.7" y2="1625.2"/>
	<line class="st0" x1="305.5" y1="1634.5" x2="304.2" y2="1634.8"/>
	<line class="st0" x1="305.9" y1="1625.6" x2="305.9" y2="1625.6"/>
	<line class="st0" x1="304.7" y1="1625.2" x2="305.9" y2="1625.6"/>
	<line class="st0" x1="305.5" y1="1634.5" x2="306.6" y2="1633.9"/>
	<line class="st0" x1="305.9" y1="1625.6" x2="306.9" y2="1626.3"/>
	<line class="st0" x1="305.9" y1="1625.6" x2="305.9" y2="1625.6"/>
	<line class="st0" x1="306.6" y1="1633.9" x2="307.5" y2="1633.1"/>
	<line class="st0" x1="307.6" y1="1627" x2="307.8" y2="1627.2"/>
	<line class="st0" x1="306.9" y1="1626.3" x2="307.6" y2="1627"/>
	<line class="st0" x1="308.2" y1="1632" x2="307.5" y2="1633.1"/>
	<line class="st0" x1="307.9" y1="1627.5" x2="308.3" y2="1628.3"/>
	<line class="st0" x1="307.9" y1="1627.5" x2="307.8" y2="1627.2"/>
	<line class="st0" x1="308.2" y1="1632" x2="308.6" y2="1630.8"/>
	<line class="st0" x1="308.6" y1="1629.9" x2="308.6" y2="1629.5"/>
	<line class="st0" x1="308.6" y1="1630.8" x2="308.6" y2="1629.9"/>
	<line class="st0" x1="308.6" y1="1629.5" x2="308.5" y2="1629.2"/>
	<line class="st0" x1="308.3" y1="1628.3" x2="308.5" y2="1629.2"/>
	<line class="st0" x1="299.1" y1="1749.7" x2="299" y2="1750.6"/>
	<line class="st0" x1="299" y1="1750.6" x2="299" y2="1750.9"/>
	<line class="st0" x1="299" y1="1750.9" x2="299.1" y2="1751.2"/>
	<path class="st0" d="M299.2,1751.7c0-0.2-0.1-0.3-0.1-0.5"/>
	<line class="st0" x1="299.2" y1="1751.7" x2="299.3" y2="1752.1"/>
	<line class="st0" x1="299.1" y1="1749.7" x2="299.4" y2="1748.5"/>
	<line class="st0" x1="299.4" y1="1748.5" x2="299.4" y2="1748.5"/>
	<line class="st0" x1="299.9" y1="1753.2" x2="299.9" y2="1753.2"/>
	<line class="st0" x1="299.3" y1="1752.1" x2="299.4" y2="1752.2"/>
	<path class="st0" d="M299.9,1753.2c-0.2-0.3-0.4-0.6-0.5-0.9"/>
	<line class="st0" x1="300.1" y1="1747.5" x2="300.1" y2="1747.4"/>
	<line class="st0" x1="299.5" y1="1748.3" x2="299.4" y2="1748.5"/>
	<path class="st0" d="M299.5,1748.3c0.2-0.3,0.3-0.6,0.6-0.9"/>
	<line class="st0" x1="300.1" y1="1753.4" x2="299.9" y2="1753.2"/>
	<path class="st0" d="M300.1,1753.4c0.1,0.2,0.3,0.3,0.4,0.5"/>
	<line class="st0" x1="300.5" y1="1753.9" x2="300.8" y2="1754.2"/>
	<line class="st0" x1="300.7" y1="1746.8" x2="301" y2="1746.5"/>
	<line class="st0" x1="300.2" y1="1747.3" x2="300.1" y2="1747.4"/>
	<path class="st0" d="M300.2,1747.3c0.2-0.2,0.3-0.4,0.5-0.5"/>
	<line class="st0" x1="300.8" y1="1754.2" x2="301.8" y2="1754.8"/>
	<line class="st0" x1="302.1" y1="1745.9" x2="301" y2="1746.5"/>
	<line class="st0" x1="301.8" y1="1754.8" x2="303" y2="1755.2"/>
	<path class="st0" d="M302.9,1745.7c-0.1,0-0.2,0-0.3,0.1"/>
	<line class="st0" x1="303.3" y1="1745.6" x2="302.9" y2="1745.7"/>
	<line class="st0" x1="302.6" y1="1745.8" x2="302.1" y2="1745.9"/>
	<line class="st0" x1="303.8" y1="1755.2" x2="303.8" y2="1755.2"/>
	<line class="st0" x1="303.8" y1="1755.2" x2="304.3" y2="1755.2"/>
	<line class="st0" x1="303" y1="1755.2" x2="303.8" y2="1755.2"/>
	<line class="st0" x1="303.3" y1="1745.6" x2="303.6" y2="1745.6"/>
	<line class="st0" x1="303.6" y1="1745.6" x2="304.6" y2="1745.7"/>
	<line class="st0" x1="305.1" y1="1755" x2="305.5" y2="1754.9"/>
	<path class="st0" d="M304.6,1755.1c0.1,0,0.3-0.1,0.4-0.1"/>
	<line class="st0" x1="304.3" y1="1755.2" x2="304.6" y2="1755.1"/>
	<line class="st0" x1="305.5" y1="1745.9" x2="304.6" y2="1745.7"/>
	<line class="st0" x1="305.8" y1="1746" x2="305.5" y2="1745.9"/>
	<line class="st0" x1="306.6" y1="1754.3" x2="306.5" y2="1754.3"/>
	<path class="st0" d="M306.5,1754.3c-0.3,0.2-0.6,0.4-0.9,0.5"/>
	<line class="st0" x1="305.5" y1="1754.9" x2="305.6" y2="1754.8"/>
	<line class="st0" x1="306.5" y1="1746.5" x2="306.9" y2="1746.7"/>
	<line class="st0" x1="305.8" y1="1746" x2="306.3" y2="1746.3"/>
	<path class="st0" d="M306.5,1746.5c-0.1,0-0.1-0.1-0.2-0.1"/>
	<line class="st0" x1="307.6" y1="1753.5" x2="306.6" y2="1754.3"/>
	<line class="st0" x1="307.5" y1="1747.4" x2="307.7" y2="1747.6"/>
	<line class="st0" x1="307.1" y1="1746.9" x2="306.9" y2="1746.7"/>
	<path class="st0" d="M307.1,1746.9c0.1,0.1,0.3,0.3,0.4,0.4"/>
	<line class="st0" x1="308.2" y1="1752.4" x2="307.6" y2="1753.5"/>
	<path class="st0" d="M308.2,1748.6c-0.1-0.3-0.3-0.7-0.5-0.9"/>
	<line class="st0" x1="307.7" y1="1747.6" x2="307.7" y2="1747.6"/>
	<line class="st0" x1="308.2" y1="1748.6" x2="308.3" y2="1748.7"/>
	<line class="st0" x1="308.6" y1="1751.2" x2="308.2" y2="1752.4"/>
	<line class="st0" x1="308.6" y1="1750.4" x2="308.6" y2="1751.2"/>
	<line class="st0" x1="308.6" y1="1750.4" x2="308.6" y2="1749.9"/>
	<line class="st0" x1="308.6" y1="1749.9" x2="308.5" y2="1749.6"/>
	<path class="st0" d="M308.4,1749.1c0,0.2,0.1,0.3,0.1,0.5"/>
	<line class="st0" x1="308.4" y1="1749.1" x2="308.3" y2="1748.7"/>
	<line class="st0" x1="1353.6" y1="1749.6" x2="1353.6" y2="1749.4"/>
	<line class="st0" x1="1353.5" y1="1750.5" x2="1353.5" y2="1750.7"/>
	<line class="st0" x1="1353.5" y1="1750.5" x2="1353.6" y2="1749.6"/>
	<line class="st0" x1="1353.6" y1="1751.2" x2="1353.5" y2="1750.7"/>
	<line class="st0" x1="1353.6" y1="1751.5" x2="1353.7" y2="1751.9"/>
	<path class="st0" d="M1353.6,1751.2c0,0.1,0,0.2,0.1,0.3"/>
	<line class="st0" x1="1354" y1="1748.2" x2="1353.8" y2="1748.8"/>
	<line class="st0" x1="1353.8" y1="1748.8" x2="1353.6" y2="1749.4"/>
	<line class="st0" x1="1353.8" y1="1748.8" x2="1353.8" y2="1748.8"/>
	<line class="st0" x1="1354.3" y1="1753" x2="1353.8" y2="1752.2"/>
	<line class="st0" x1="1353.7" y1="1751.9" x2="1353.8" y2="1752.2"/>
	<line class="st0" x1="1354" y1="1748.2" x2="1354.7" y2="1747.2"/>
	<line class="st0" x1="1355" y1="1753.9" x2="1354.3" y2="1753"/>
	<line class="st0" x1="1355" y1="1753.9" x2="1355.1" y2="1754"/>
	<line class="st0" x1="1355.1" y1="1746.9" x2="1354.7" y2="1747.2"/>
	<line class="st0" x1="1355.1" y1="1746.9" x2="1355.7" y2="1746.4"/>
	<path class="st0" d="M1355.5,1754.3c0.1,0.1,0.2,0.1,0.2,0.2"/>
	<line class="st0" x1="1355.5" y1="1754.3" x2="1355.1" y2="1754"/>
	<line class="st0" x1="1355.7" y1="1754.4" x2="1356.1" y2="1754.7"/>
	<line class="st0" x1="1356.8" y1="1745.8" x2="1356.5" y2="1746"/>
	<line class="st0" x1="1355.7" y1="1746.4" x2="1356.5" y2="1746"/>
	<line class="st0" x1="1355.7" y1="1746.4" x2="1355.7" y2="1746.4"/>
	<line class="st0" x1="1356.1" y1="1754.7" x2="1356.4" y2="1754.8"/>
	<line class="st0" x1="1356.9" y1="1755" x2="1357.3" y2="1755.1"/>
	<path class="st0" d="M1356.4,1754.8c0.2,0.1,0.3,0.1,0.5,0.2"/>
	<line class="st0" x1="1358.1" y1="1745.6" x2="1357.7" y2="1745.7"/>
	<line class="st0" x1="1357.2" y1="1745.7" x2="1356.8" y2="1745.8"/>
	<path class="st0" d="M1357.2,1745.7c0.1,0,0.3,0,0.4-0.1"/>
	<line class="st0" x1="1358.4" y1="1755.2" x2="1357.3" y2="1755.1"/>
	<line class="st0" x1="1357.3" y1="1755.1" x2="1357.3" y2="1755.1"/>
	<line class="st0" x1="1358.4" y1="1755.2" x2="1358.5" y2="1755.2"/>
	<line class="st0" x1="1358.2" y1="1745.6" x2="1358.1" y2="1745.6"/>
	<line class="st0" x1="1359.3" y1="1745.7" x2="1359.3" y2="1745.7"/>
	<line class="st0" x1="1358.2" y1="1745.6" x2="1359.3" y2="1745.7"/>
	<line class="st0" x1="1358.5" y1="1755.2" x2="1358.9" y2="1755.1"/>
	<path class="st0" d="M1359.4,1755.1c-0.2,0-0.3,0.1-0.5,0.1"/>
	<line class="st0" x1="1359.8" y1="1755" x2="1359.4" y2="1755.1"/>
	<path class="st0" d="M1360.2,1746c-0.2-0.1-0.3-0.1-0.5-0.2"/>
	<line class="st0" x1="1360.2" y1="1746" x2="1360.5" y2="1746.1"/>
	<line class="st0" x1="1359.7" y1="1745.8" x2="1359.3" y2="1745.7"/>
	<line class="st0" x1="1360.9" y1="1754.5" x2="1359.8" y2="1755"/>
	<line class="st0" x1="1360.9" y1="1746.4" x2="1360.5" y2="1746.1"/>
	<path class="st0" d="M1361.1,1746.5c-0.1-0.1-0.2-0.1-0.2-0.2"/>
	<line class="st0" x1="1361.5" y1="1746.8" x2="1361.1" y2="1746.5"/>
	<line class="st0" x1="1360.9" y1="1754.5" x2="1361.9" y2="1753.7"/>
	<line class="st0" x1="1361.7" y1="1747" x2="1361.5" y2="1746.8"/>
	<path class="st0" d="M1361.7,1747c0,0,0.1,0.1,0.1,0.1"/>
	<line class="st0" x1="1361.8" y1="1747.1" x2="1362.4" y2="1747.8"/>
	<line class="st0" x1="1361.9" y1="1753.7" x2="1362.6" y2="1752.6"/>
	<line class="st0" x1="1362.9" y1="1748.9" x2="1362.4" y2="1747.8"/>
	<line class="st0" x1="1362.9" y1="1751.7" x2="1363" y2="1751.4"/>
	<path class="st0" d="M1362.7,1752.3c0.1-0.2,0.2-0.4,0.2-0.7"/>
	<line class="st0" x1="1362.6" y1="1752.6" x2="1362.7" y2="1752.3"/>
	<line class="st0" x1="1363" y1="1751.4" x2="1363" y2="1751.3"/>
	<line class="st0" x1="1363.1" y1="1750.2" x2="1363.1" y2="1750.3"/>
	<line class="st0" x1="1363.1" y1="1750.3" x2="1363" y2="1751.3"/>
	<path class="st0" d="M1363,1749.8c0-0.2,0-0.4-0.1-0.5"/>
	<line class="st0" x1="1362.9" y1="1748.9" x2="1363" y2="1749.3"/>
	<line class="st0" x1="1363.1" y1="1750.2" x2="1363" y2="1749.8"/>
	<line class="st0" x1="1353.6" y1="1628.9" x2="1353.6" y2="1629.1"/>
	<line class="st0" x1="1353.5" y1="1630.1" x2="1353.5" y2="1630"/>
	<line class="st0" x1="1353.5" y1="1630" x2="1353.6" y2="1629.1"/>
	<line class="st0" x1="1353.7" y1="1631" x2="1353.7" y2="1631.3"/>
	<path class="st0" d="M1353.6,1630.4c0,0.2,0,0.4,0.1,0.6"/>
	<line class="st0" x1="1353.5" y1="1630.1" x2="1353.6" y2="1630.4"/>
	<line class="st0" x1="1353.7" y1="1628.8" x2="1353.6" y2="1628.9"/>
	<line class="st0" x1="1354.1" y1="1627.7" x2="1353.7" y2="1628.8"/>
	<path class="st0" d="M1353.9,1631.8C1353.9,1631.7,1353.9,1631.7,1353.9,1631.8"/>
	<line class="st0" x1="1353.9" y1="1631.8" x2="1354.2" y2="1632.5"/>
	<line class="st0" x1="1353.9" y1="1631.7" x2="1353.7" y2="1631.3"/>
	<line class="st0" x1="1354.1" y1="1627.7" x2="1354.8" y2="1626.7"/>
	<line class="st0" x1="1355" y1="1633.5" x2="1354.2" y2="1632.5"/>
	<line class="st0" x1="1354.8" y1="1626.7" x2="1355.8" y2="1625.9"/>
	<line class="st0" x1="1355" y1="1633.5" x2="1356" y2="1634.2"/>
	<line class="st0" x1="1356.7" y1="1625.4" x2="1356.9" y2="1625.3"/>
	<line class="st0" x1="1355.8" y1="1625.9" x2="1356.7" y2="1625.4"/>
	<line class="st0" x1="1357.2" y1="1634.6" x2="1356" y2="1634.2"/>
	<path class="st0" d="M1357.2,1625.3c0.2,0,0.4-0.1,0.6-0.1"/>
	<line class="st0" x1="1357.2" y1="1625.3" x2="1356.9" y2="1625.3"/>
	<line class="st0" x1="1357.8" y1="1625.2" x2="1358.1" y2="1625.1"/>
	<line class="st0" x1="1357.2" y1="1634.6" x2="1358.5" y2="1634.8"/>
	<line class="st0" x1="1358.2" y1="1625.1" x2="1359.4" y2="1625.3"/>
	<line class="st0" x1="1358.2" y1="1625.1" x2="1358.1" y2="1625.1"/>
	<line class="st0" x1="1358.5" y1="1634.8" x2="1359.7" y2="1634.6"/>
	<line class="st0" x1="1359.4" y1="1625.3" x2="1360.5" y2="1625.7"/>
	<line class="st0" x1="1360.6" y1="1625.7" x2="1360.5" y2="1625.7"/>
	<line class="st0" x1="1359.7" y1="1634.6" x2="1360.8" y2="1634"/>
	<line class="st0" x1="1360.7" y1="1625.8" x2="1360.6" y2="1625.7"/>
	<path class="st0" d="M1360.7,1625.8c0.2,0.1,0.5,0.3,0.7,0.5"/>
	<line class="st0" x1="1361.4" y1="1626.2" x2="1361.6" y2="1626.4"/>
	<path class="st0" d="M1360.9,1633.9c0.3-0.2,0.6-0.4,0.8-0.7"/>
	<line class="st0" x1="1360.8" y1="1634" x2="1360.9" y2="1633.9"/>
	<line class="st0" x1="1361.7" y1="1633.3" x2="1361.8" y2="1633.2"/>
	<line class="st0" x1="1361.7" y1="1626.5" x2="1361.6" y2="1626.4"/>
	<line class="st0" x1="1362.4" y1="1627.4" x2="1362.3" y2="1627.3"/>
	<path class="st0" d="M1362.3,1627.3c-0.2-0.3-0.4-0.6-0.7-0.8"/>
	<line class="st0" x1="1362.6" y1="1632.2" x2="1361.8" y2="1633.2"/>
	<line class="st0" x1="1362.9" y1="1628.6" x2="1362.9" y2="1628.6"/>
	<line class="st0" x1="1362.5" y1="1627.6" x2="1362.9" y2="1628.6"/>
	<line class="st0" x1="1362.5" y1="1627.6" x2="1362.4" y2="1627.4"/>
	<line class="st0" x1="1362.6" y1="1632.2" x2="1363" y2="1631"/>
	<line class="st0" x1="1363.1" y1="1629.9" x2="1363.1" y2="1630.4"/>
	<line class="st0" x1="1363.1" y1="1629.9" x2="1363.1" y2="1629.8"/>
	<line class="st0" x1="1363.1" y1="1630.4" x2="1363" y2="1631"/>
	<line class="st0" x1="1362.9" y1="1628.6" x2="1363.1" y2="1629.6"/>
	<line class="st0" x1="1362.9" y1="1628.6" x2="1362.9" y2="1628.6"/>
	<line class="st0" x1="1363.1" y1="1629.8" x2="1363.1" y2="1629.6"/>
	<line class="st0" x1="673.2" y1="1629.2" x2="673.2" y2="1629.9"/>
	<line class="st0" x1="673.2" y1="1630.4" x2="673.2" y2="1629.9"/>
	<line class="st0" x1="673.3" y1="1630.9" x2="673.5" y2="1631.7"/>
	<path class="st0" d="M673.3,1630.8C673.3,1630.8,673.3,1630.9,673.3,1630.8"/>
	<line class="st0" x1="673.2" y1="1630.4" x2="673.3" y2="1630.8"/>
	<line class="st0" x1="673.4" y1="1628.5" x2="673.2" y2="1629.2"/>
	<line class="st0" x1="673.6" y1="1628" x2="673.4" y2="1628.5"/>
	<line class="st0" x1="674.1" y1="1632.8" x2="673.5" y2="1631.7"/>
	<line class="st0" x1="673.7" y1="1627.9" x2="674.3" y2="1626.9"/>
	<line class="st0" x1="673.7" y1="1627.9" x2="673.6" y2="1628"/>
	<line class="st0" x1="674.9" y1="1633.7" x2="674.1" y2="1632.8"/>
	<line class="st0" x1="675.1" y1="1626.1" x2="674.3" y2="1626.9"/>
	<line class="st0" x1="675.1" y1="1626.1" x2="675.2" y2="1626"/>
	<line class="st0" x1="674.9" y1="1633.7" x2="676" y2="1634.3"/>
	<line class="st0" x1="675.2" y1="1626" x2="675.2" y2="1626"/>
	<line class="st0" x1="676.3" y1="1625.4" x2="676.2" y2="1625.5"/>
	<path class="st0" d="M675.2,1626c0.3-0.2,0.6-0.4,0.9-0.5"/>
	<line class="st0" x1="676" y1="1634.3" x2="677.2" y2="1634.7"/>
	<line class="st0" x1="677.5" y1="1625.2" x2="676.5" y2="1625.4"/>
	<line class="st0" x1="676.5" y1="1625.4" x2="676.3" y2="1625.4"/>
	<line class="st0" x1="678" y1="1634.7" x2="677.2" y2="1634.7"/>
	<line class="st0" x1="678" y1="1634.7" x2="678" y2="1634.7"/>
	<line class="st0" x1="678" y1="1634.7" x2="678.5" y2="1634.7"/>
	<line class="st0" x1="678.8" y1="1625.2" x2="677.5" y2="1625.2"/>
	<path class="st0" d="M679.1,1634.6c-0.1,0-0.2,0-0.2,0"/>
	<line class="st0" x1="679.1" y1="1634.6" x2="679.7" y2="1634.5"/>
	<line class="st0" x1="678.8" y1="1634.6" x2="678.5" y2="1634.7"/>
	<line class="st0" x1="678.8" y1="1625.2" x2="680" y2="1625.6"/>
	<line class="st0" x1="679.7" y1="1634.5" x2="680.8" y2="1633.9"/>
	<line class="st0" x1="681" y1="1626.2" x2="680" y2="1625.6"/>
	<line class="st0" x1="681.7" y1="1633" x2="681.7" y2="1633"/>
	<path class="st0" d="M681.7,1633c-0.2,0.2-0.4,0.4-0.6,0.6"/>
	<line class="st0" x1="680.8" y1="1633.9" x2="681" y2="1633.7"/>
	<line class="st0" x1="681.9" y1="1627.1" x2="681.8" y2="1627"/>
	<line class="st0" x1="681" y1="1626.2" x2="681.8" y2="1627"/>
	<path class="st0" d="M682.3,1632.1c-0.2,0.3-0.3,0.6-0.6,0.9"/>
	<line class="st0" x1="682.3" y1="1632.1" x2="682.4" y2="1631.9"/>
	<line class="st0" x1="681.7" y1="1633" x2="681.7" y2="1633"/>
	<line class="st0" x1="681.9" y1="1627.1" x2="681.9" y2="1627.1"/>
	<path class="st0" d="M681.9,1627.1c0.2,0.3,0.4,0.6,0.5,0.9"/>
	<line class="st0" x1="682.4" y1="1628.1" x2="682.5" y2="1628.2"/>
	<line class="st0" x1="682.4" y1="1631.8" x2="682.4" y2="1631.9"/>
	<line class="st0" x1="682.4" y1="1631.8" x2="682.7" y2="1630.7"/>
	<line class="st0" x1="682.8" y1="1629.7" x2="682.7" y2="1630.7"/>
	<line class="st0" x1="682.8" y1="1629.7" x2="682.8" y2="1629.5"/>
	<path class="st0" d="M682.7,1629.2c0-0.2-0.1-0.5-0.2-0.7"/>
	<line class="st0" x1="682.6" y1="1628.5" x2="682.5" y2="1628.2"/>
	<line class="st0" x1="682.8" y1="1629.5" x2="682.7" y2="1629.2"/>
	<line class="st0" x1="673.4" y1="1749" x2="673.5" y2="1748.7"/>
	<line class="st0" x1="673.3" y1="1749.7" x2="673.2" y2="1750"/>
	<path class="st0" d="M673.3,1749.7c0-0.2,0.1-0.4,0.2-0.7"/>
	<line class="st0" x1="673.2" y1="1750.4" x2="673.2" y2="1751.2"/>
	<line class="st0" x1="673.2" y1="1750.4" x2="673.2" y2="1750"/>
	<line class="st0" x1="673.6" y1="1752.4" x2="673.2" y2="1751.2"/>
	<line class="st0" x1="673.6" y1="1748.6" x2="673.5" y2="1748.7"/>
	<line class="st0" x1="674.1" y1="1747.7" x2="674.1" y2="1747.6"/>
	<path class="st0" d="M673.6,1748.6c0.1-0.3,0.3-0.6,0.5-0.9"/>
	<line class="st0" x1="674.3" y1="1753.5" x2="674.1" y2="1753.2"/>
	<path class="st0" d="M673.9,1752.9c0.1,0.1,0.1,0.2,0.2,0.3"/>
	<line class="st0" x1="673.9" y1="1752.9" x2="673.6" y2="1752.4"/>
	<line class="st0" x1="674.3" y1="1747.3" x2="674.1" y2="1747.6"/>
	<path class="st0" d="M674.3,1747.3c0.1-0.1,0.2-0.3,0.3-0.4"/>
	<line class="st0" x1="674.7" y1="1746.9" x2="674.9" y2="1746.7"/>
	<line class="st0" x1="674.5" y1="1753.7" x2="674.3" y2="1753.5"/>
	<path class="st0" d="M674.5,1753.7c0.1,0.1,0.3,0.2,0.4,0.3"/>
	<line class="st0" x1="674.9" y1="1754.1" x2="675.2" y2="1754.3"/>
	<path class="st0" d="M675.5,1746.3c-0.1,0.1-0.2,0.1-0.3,0.2"/>
	<line class="st0" x1="675.2" y1="1746.5" x2="674.9" y2="1746.7"/>
	<line class="st0" x1="676" y1="1746" x2="675.5" y2="1746.3"/>
	<path class="st0" d="M676.2,1754.8c-0.3-0.1-0.6-0.3-0.9-0.5"/>
	<line class="st0" x1="675.2" y1="1754.3" x2="675.3" y2="1754.3"/>
	<line class="st0" x1="676.2" y1="1754.8" x2="676.3" y2="1754.9"/>
	<line class="st0" x1="676.3" y1="1745.9" x2="676" y2="1746"/>
	<line class="st0" x1="676.3" y1="1745.9" x2="677.2" y2="1745.7"/>
	<line class="st0" x1="677.2" y1="1755.1" x2="677.5" y2="1755.2"/>
	<line class="st0" x1="676.7" y1="1755" x2="676.3" y2="1754.9"/>
	<path class="st0" d="M676.7,1755c0.1,0,0.3,0.1,0.4,0.1"/>
	<line class="st0" x1="678.2" y1="1745.6" x2="678.5" y2="1745.6"/>
	<line class="st0" x1="677.2" y1="1745.7" x2="678.2" y2="1745.6"/>
	<line class="st0" x1="678" y1="1755.2" x2="678.8" y2="1755.2"/>
	<line class="st0" x1="678" y1="1755.2" x2="678" y2="1755.2"/>
	<line class="st0" x1="678" y1="1755.2" x2="677.5" y2="1755.2"/>
	<line class="st0" x1="679.3" y1="1745.8" x2="679.7" y2="1745.9"/>
	<line class="st0" x1="678.8" y1="1745.7" x2="678.5" y2="1745.6"/>
	<path class="st0" d="M679.3,1745.8c-0.1,0-0.3-0.1-0.4-0.1"/>
	<line class="st0" x1="680" y1="1754.8" x2="678.8" y2="1755.2"/>
	<line class="st0" x1="680.7" y1="1746.5" x2="680.8" y2="1746.5"/>
	<line class="st0" x1="679.8" y1="1746" x2="679.7" y2="1745.9"/>
	<path class="st0" d="M679.8,1746c0.3,0.1,0.6,0.3,0.9,0.5"/>
	<line class="st0" x1="680.2" y1="1754.7" x2="680" y2="1754.8"/>
	<line class="st0" x1="680.2" y1="1754.7" x2="681" y2="1754.1"/>
	<line class="st0" x1="680.9" y1="1746.6" x2="680.8" y2="1746.5"/>
	<line class="st0" x1="680.9" y1="1746.6" x2="681.7" y2="1747.4"/>
	<line class="st0" x1="681.9" y1="1753.2" x2="681.9" y2="1753.2"/>
	<line class="st0" x1="681.9" y1="1753.2" x2="681" y2="1754.1"/>
	<line class="st0" x1="682.2" y1="1748.1" x2="681.7" y2="1747.4"/>
	<line class="st0" x1="682.2" y1="1748.1" x2="682.4" y2="1748.4"/>
	<line class="st0" x1="682.5" y1="1752.2" x2="682.5" y2="1752.1"/>
	<line class="st0" x1="682.5" y1="1752.2" x2="681.9" y2="1753.1"/>
	<line class="st0" x1="681.9" y1="1753.1" x2="681.9" y2="1753.2"/>
	<line class="st0" x1="682.5" y1="1748.7" x2="682.7" y2="1749.6"/>
	<line class="st0" x1="682.4" y1="1748.4" x2="682.5" y2="1748.7"/>
	<line class="st0" x1="682.5" y1="1752.1" x2="682.6" y2="1751.9"/>
	<line class="st0" x1="682.8" y1="1750.9" x2="682.7" y2="1751.2"/>
	<path class="st0" d="M682.6,1751.9c0.1-0.2,0.1-0.4,0.2-0.6"/>
	<line class="st0" x1="682.8" y1="1750.6" x2="682.7" y2="1749.6"/>
	<line class="st0" x1="682.8" y1="1750.6" x2="682.8" y2="1750.9"/>
	<line class="st0" x1="979.3" y1="1630" x2="979.3" y2="1630"/>
	<line class="st0" x1="979.5" y1="1628.8" x2="979.3" y2="1630"/>
	<line class="st0" x1="979.3" y1="1630" x2="979.3" y2="1630.2"/>
	<path class="st0" d="M979.5,1631c-0.1-0.3-0.1-0.5-0.1-0.8"/>
	<line class="st0" x1="979.5" y1="1631.3" x2="979.5" y2="1631"/>
	<line class="st0" x1="979.5" y1="1628.8" x2="979.9" y2="1627.7"/>
	<line class="st0" x1="979.9" y1="1627.7" x2="979.9" y2="1627.6"/>
	<line class="st0" x1="979.8" y1="1631.9" x2="980" y2="1632.4"/>
	<line class="st0" x1="979.6" y1="1631.6" x2="979.5" y2="1631.3"/>
	<path class="st0" d="M979.8,1631.9c-0.1-0.1-0.1-0.2-0.2-0.3"/>
	<line class="st0" x1="979.9" y1="1627.6" x2="980.7" y2="1626.6"/>
	<line class="st0" x1="979.9" y1="1627.6" x2="979.9" y2="1627.6"/>
	<line class="st0" x1="980.8" y1="1633.4" x2="980" y2="1632.4"/>
	<line class="st0" x1="981.5" y1="1625.9" x2="981.6" y2="1625.8"/>
	<line class="st0" x1="980.7" y1="1626.6" x2="981.5" y2="1625.9"/>
	<line class="st0" x1="980.8" y1="1633.4" x2="981.8" y2="1634.2"/>
	<line class="st0" x1="981.8" y1="1625.7" x2="982.8" y2="1625.3"/>
	<line class="st0" x1="982.8" y1="1625.3" x2="982.8" y2="1625.3"/>
	<line class="st0" x1="981.8" y1="1625.7" x2="981.6" y2="1625.8"/>
	<line class="st0" x1="981.8" y1="1634.2" x2="983" y2="1634.6"/>
	<line class="st0" x1="983.8" y1="1625.1" x2="984" y2="1625.1"/>
	<line class="st0" x1="982.8" y1="1625.3" x2="983.8" y2="1625.1"/>
	<line class="st0" x1="982.8" y1="1625.3" x2="982.8" y2="1625.3"/>
	<line class="st0" x1="984.2" y1="1634.8" x2="983" y2="1634.6"/>
	<line class="st0" x1="984" y1="1625.1" x2="985.3" y2="1625.3"/>
	<line class="st0" x1="984" y1="1625.1" x2="984" y2="1625.1"/>
	<line class="st0" x1="984.2" y1="1634.8" x2="985.5" y2="1634.6"/>
	<line class="st0" x1="985.3" y1="1625.3" x2="986.2" y2="1625.6"/>
	<line class="st0" x1="986.5" y1="1625.7" x2="986.2" y2="1625.6"/>
	<line class="st0" x1="985.5" y1="1634.6" x2="986.6" y2="1634.1"/>
	<line class="st0" x1="986.8" y1="1625.9" x2="986.5" y2="1625.7"/>
	<path class="st0" d="M986.8,1625.9c0.1,0,0.1,0.1,0.2,0.1"/>
	<line class="st0" x1="986.9" y1="1626" x2="987.5" y2="1626.5"/>
	<line class="st0" x1="986.9" y1="1633.9" x2="987.6" y2="1633.3"/>
	<line class="st0" x1="986.8" y1="1633.9" x2="986.6" y2="1634.1"/>
	<path class="st0" d="M986.9,1633.9C986.8,1633.9,986.8,1633.9,986.9,1633.9"/>
	<line class="st0" x1="987.8" y1="1626.9" x2="987.5" y2="1626.5"/>
	<path class="st0" d="M987.8,1626.9c0.1,0.1,0.2,0.2,0.3,0.3"/>
	<line class="st0" x1="988.3" y1="1627.5" x2="988.1" y2="1627.2"/>
	<line class="st0" x1="988.2" y1="1632.5" x2="988.3" y2="1632.3"/>
	<line class="st0" x1="987.9" y1="1632.9" x2="987.6" y2="1633.3"/>
	<path class="st0" d="M987.9,1632.9c0.1-0.1,0.2-0.2,0.3-0.4"/>
	<line class="st0" x1="988.8" y1="1628.6" x2="988.3" y2="1627.5"/>
	<line class="st0" x1="988.3" y1="1632.3" x2="988.4" y2="1632"/>
	<line class="st0" x1="988.8" y1="1631.1" x2="988.6" y2="1631.6"/>
	<path class="st0" d="M988.6,1631.6c0,0.1-0.1,0.3-0.2,0.4"/>
	<line class="st0" x1="988.8" y1="1631.1" x2="988.9" y2="1629.9"/>
	<line class="st0" x1="988.8" y1="1629.2" x2="988.8" y2="1628.6"/>
	<line class="st0" x1="988.9" y1="1629.9" x2="988.8" y2="1629.2"/>
	<line class="st0" x1="979.3" y1="1750.4" x2="979.3" y2="1749.9"/>
	<line class="st0" x1="979.3" y1="1750.4" x2="979.3" y2="1750.5"/>
	<line class="st0" x1="979.3" y1="1749.9" x2="979.4" y2="1749.3"/>
	<path class="st0" d="M979.3,1750.7c0,0.3,0.1,0.6,0.1,0.9"/>
	<line class="st0" x1="979.5" y1="1751.6" x2="979.5" y2="1751.8"/>
	<line class="st0" x1="979.3" y1="1750.7" x2="979.3" y2="1750.5"/>
	<path class="st0" d="M979.9,1748.2c-0.1,0.2-0.2,0.5-0.3,0.7"/>
	<line class="st0" x1="979.9" y1="1748.2" x2="979.9" y2="1748.1"/>
	<line class="st0" x1="979.6" y1="1748.9" x2="979.4" y2="1749.3"/>
	<line class="st0" x1="979.5" y1="1751.8" x2="979.6" y2="1752"/>
	<path class="st0" d="M979.9,1752.7c-0.1-0.2-0.2-0.4-0.3-0.7"/>
	<line class="st0" x1="979.9" y1="1752.7" x2="980" y2="1752.9"/>
	<line class="st0" x1="979.9" y1="1748.1" x2="980" y2="1748"/>
	<line class="st0" x1="980.6" y1="1747.1" x2="980.4" y2="1747.3"/>
	<path class="st0" d="M980,1748c0.1-0.2,0.3-0.5,0.5-0.7"/>
	<line class="st0" x1="980.7" y1="1753.8" x2="980.8" y2="1753.9"/>
	<path class="st0" d="M980.1,1753c0.2,0.3,0.4,0.6,0.7,0.8"/>
	<line class="st0" x1="980" y1="1752.9" x2="980.1" y2="1753"/>
	<line class="st0" x1="981.5" y1="1746.4" x2="981.6" y2="1746.3"/>
	<path class="st0" d="M981.5,1746.4c-0.3,0.2-0.6,0.4-0.8,0.7"/>
	<line class="st0" x1="980.7" y1="1747" x2="980.6" y2="1747.1"/>
	<line class="st0" x1="981.8" y1="1754.7" x2="980.8" y2="1753.9"/>
	<line class="st0" x1="981.8" y1="1746.2" x2="981.6" y2="1746.3"/>
	<line class="st0" x1="982.8" y1="1745.8" x2="982.8" y2="1745.8"/>
	<line class="st0" x1="982.8" y1="1745.8" x2="981.8" y2="1746.2"/>
	<line class="st0" x1="983" y1="1755.1" x2="981.8" y2="1754.7"/>
	<line class="st0" x1="983.8" y1="1745.6" x2="984" y2="1745.6"/>
	<line class="st0" x1="982.8" y1="1745.8" x2="983.8" y2="1745.6"/>
	<line class="st0" x1="982.8" y1="1745.8" x2="982.8" y2="1745.8"/>
	<line class="st0" x1="984.2" y1="1755.2" x2="984.3" y2="1755.2"/>
	<line class="st0" x1="983.4" y1="1755.1" x2="984.2" y2="1755.2"/>
	<line class="st0" x1="983.4" y1="1755.1" x2="983" y2="1755.1"/>
	<line class="st0" x1="984.4" y1="1745.6" x2="985.3" y2="1745.7"/>
	<line class="st0" x1="984.1" y1="1745.6" x2="984" y2="1745.6"/>
	<line class="st0" x1="984.1" y1="1745.6" x2="984.4" y2="1745.6"/>
	<path class="st0" d="M984.6,1755.2c0.3,0,0.5-0.1,0.8-0.1"/>
	<line class="st0" x1="984.3" y1="1755.2" x2="984.6" y2="1755.2"/>
	<line class="st0" x1="985.3" y1="1755" x2="985.5" y2="1755"/>
	<line class="st0" x1="985.8" y1="1745.9" x2="985.3" y2="1745.7"/>
	<path class="st0" d="M985.8,1745.9c0.2,0.1,0.3,0.1,0.5,0.2"/>
	<line class="st0" x1="986.4" y1="1746.2" x2="986.2" y2="1746.1"/>
	<line class="st0" x1="985.5" y1="1755" x2="985.6" y2="1754.9"/>
	<line class="st0" x1="986.5" y1="1754.5" x2="986.6" y2="1754.5"/>
	<line class="st0" x1="986.5" y1="1754.5" x2="985.6" y2="1754.9"/>
	<line class="st0" x1="986.5" y1="1746.3" x2="986.4" y2="1746.2"/>
	<line class="st0" x1="986.9" y1="1746.5" x2="987.5" y2="1746.9"/>
	<path class="st0" d="M986.9,1746.5c-0.1-0.1-0.2-0.2-0.4-0.2"/>
	<line class="st0" x1="986.6" y1="1754.5" x2="986.7" y2="1754.4"/>
	<line class="st0" x1="987.6" y1="1753.7" x2="986.7" y2="1754.4"/>
	<line class="st0" x1="988" y1="1747.6" x2="987.5" y2="1746.9"/>
	<path class="st0" d="M988.1,1747.8c0-0.1-0.1-0.1-0.1-0.1"/>
	<line class="st0" x1="988.1" y1="1747.8" x2="988.2" y2="1747.9"/>
	<line class="st0" x1="988.4" y1="1752.7" x2="988.1" y2="1753"/>
	<line class="st0" x1="988.1" y1="1753" x2="987.6" y2="1753.7"/>
	<path class="st0" d="M988.5,1748.6c0-0.1-0.1-0.2-0.1-0.3"/>
	<line class="st0" x1="988.8" y1="1749.1" x2="988.5" y2="1748.6"/>
	<line class="st0" x1="988.4" y1="1748.3" x2="988.2" y2="1747.9"/>
	<line class="st0" x1="988.8" y1="1751.6" x2="988.4" y2="1752.7"/>
	<line class="st0" x1="988.9" y1="1750.4" x2="988.9" y2="1750.3"/>
	<line class="st0" x1="988.9" y1="1750.8" x2="988.8" y2="1751.6"/>
	<line class="st0" x1="988.9" y1="1750.4" x2="988.9" y2="1750.8"/>
	<line class="st0" x1="988.9" y1="1750.3" x2="988.8" y2="1749.1"/>
	<path class="st0" d="M273.9,3044.2c0,0.2-0.1,0.4-0.1,0.6"/>
	<path class="st0" d="M273,3046.4c0.1-0.2,0.2-0.3,0.3-0.5"/>
	<path class="st0" d="M272.8,3038.7c-0.5-0.7-1.1-1.3-1.8-1.8"/>
	<path class="st0" d="M272.8,3038.7c0.5,0.8,0.9,1.6,1.1,2.6"/>
	<path class="st0" d="M263.3,3036.7c0.2-0.1,0.3-0.2,0.5-0.3"/>
	<path class="st0" d="M260.9,3039.1C260.9,3039.1,260.9,3039.1,260.9,3039.1"/>
	<path class="st0" d="M260.9,3039.1c0.6-1,1.4-1.8,2.4-2.4"/>
	<path class="st0" d="M260.9,3039.1c-0.6,1.1-1,2.3-1,3.6"/>
	<path class="st0" d="M267,3035.6c-0.5,0-1,0.1-1.5,0.2"/>
	<path class="st0" d="M268.5,3035.8c0.9,0.2,1.8,0.6,2.6,1.1"/>
	<path class="st0" d="M268.5,3035.8c-0.5-0.1-1-0.2-1.5-0.2"/>
	<path class="st0" d="M273.9,3041.2c0.1,0.5,0.2,1,0.2,1.5"/>
	<path class="st0" d="M265.5,3035.8c-0.2,0-0.4,0.1-0.6,0.1"/>
	<path class="st0" d="M274.1,3042.7C274.1,3042.7,274.1,3042.7,274.1,3042.7c0,0.5-0.1,1-0.2,1.5"/>
	<path class="st0" d="M273,3046.4c-0.6,1-1.4,1.8-2.4,2.4"/>
	<path class="st0" d="M259.9,3042.7C259.9,3042.7,259.9,3042.7,259.9,3042.7c0,3.9,3.2,7.1,7.1,7.1c1.3,0,2.5-0.4,3.6-1"/>
	<line class="st0" x1="270.6" y1="3048.8" x2="270.6" y2="3048.8"/>
	<path class="st0" d="M619.5,3038c-0.7-0.7-1.5-1.3-2.4-1.7"/>
	<path class="st0" d="M619.9,3046.9c-0.2,0.3-0.5,0.6-0.8,0.9"/>
	<path class="st0" d="M620.6,3045.7c-0.1,0.2-0.2,0.4-0.3,0.5"/>
	<path class="st0" d="M620.9,3040.4c-0.2-0.5-0.4-0.9-0.6-1.4"/>
	<path class="st0" d="M621.2,3043.6c0-0.3,0.1-0.6,0.1-0.9c0-0.1,0-0.1,0-0.2"/>
	<path class="st0" d="M613.9,3035.6c0,0,0.1,0,0.1,0"/>
	<path class="st0" d="M621.2,3043.6c0,0.4-0.1,0.7-0.2,1.1"/>
	<path class="st0" d="M617.1,3036.2c-0.9-0.4-1.9-0.6-2.9-0.6c0,0-0.1,0-0.1,0"/>
	<path class="st0" d="M621.3,3042.3c0-0.5-0.1-1-0.2-1.4"/>
	<path class="st0" d="M613.9,3035.6c-0.6,0-1.1,0.1-1.7,0.3"/>
	<path class="st0" d="M612.2,3035.9c-2.9,0.9-5.1,3.6-5.1,6.8c0,3.9,3.2,7.1,7.1,7.1c1.9,0,3.6-0.8,4.9-2"/>
	<path class="st0" d="M612.2,3035.9C612.2,3035.9,612.2,3035.9,612.2,3035.9"/>
	<path class="st0" d="M620.3,3039c-0.1-0.1-0.1-0.2-0.2-0.3"/>
	<path class="st0" d="M620.9,3040.4c0,0.1,0.1,0.3,0.1,0.4"/>
	<path class="st0" d="M621.3,3042.5c0-0.1,0-0.2,0-0.3"/>
	<line class="st0" x1="267" y1="3049.8" x2="268.9" y2="3049.5"/>
	<line class="st0" x1="267" y1="3049.8" x2="265.2" y2="3049.5"/>
	<line class="st0" x1="268.9" y1="3049.5" x2="270.6" y2="3048.8"/>
	<line class="st0" x1="270.6" y1="3048.8" x2="270.6" y2="3048.8"/>
	<line class="st0" x1="263.5" y1="3048.8" x2="265.2" y2="3049.5"/>
	<line class="st0" x1="270.6" y1="3048.8" x2="270.6" y2="3048.8"/>
	<line class="st0" x1="272" y1="3047.7" x2="270.6" y2="3048.8"/>
	<line class="st0" x1="263.5" y1="3048.8" x2="262" y2="3047.7"/>
	<line class="st0" x1="273" y1="3046.4" x2="273.2" y2="3046.2"/>
	<line class="st0" x1="273" y1="3046.4" x2="272" y2="3047.7"/>
	<line class="st0" x1="262" y1="3047.7" x2="260.9" y2="3046.2"/>
	<line class="st0" x1="273.8" y1="3044.8" x2="273.9" y2="3044.5"/>
	<line class="st0" x1="273.2" y1="3046.2" x2="273.3" y2="3045.9"/>
	<path class="st0" d="M273.8,3044.8c-0.1,0.4-0.3,0.8-0.5,1.1"/>
	<line class="st0" x1="260.9" y1="3046.2" x2="260.6" y2="3045.5"/>
	<line class="st0" x1="260.6" y1="3045.5" x2="260.2" y2="3044.5"/>
	<line class="st0" x1="273.9" y1="3044.2" x2="273.9" y2="3044.5"/>
	<line class="st0" x1="274.1" y1="3042.7" x2="274.1" y2="3042.7"/>
	<line class="st0" x1="274.1" y1="3042.7" x2="273.9" y2="3044.2"/>
	<line class="st0" x1="259.9" y1="3042.7" x2="259.9" y2="3042.7"/>
	<line class="st0" x1="259.9" y1="3042.7" x2="260.2" y2="3044.5"/>
	<line class="st0" x1="273.9" y1="3041.2" x2="274.1" y2="3042.7"/>
	<line class="st0" x1="274.1" y1="3042.7" x2="274.1" y2="3042.7"/>
	<line class="st0" x1="273.9" y1="3040.8" x2="273.9" y2="3041.2"/>
	<line class="st0" x1="260.2" y1="3040.8" x2="259.9" y2="3042.7"/>
	<line class="st0" x1="259.9" y1="3042.7" x2="259.9" y2="3042.7"/>
	<line class="st0" x1="273.2" y1="3039.1" x2="273.9" y2="3040.8"/>
	<line class="st0" x1="260.2" y1="3040.8" x2="260.9" y2="3039.1"/>
	<line class="st0" x1="260.9" y1="3039.1" x2="260.9" y2="3039.1"/>
	<line class="st0" x1="272.8" y1="3038.7" x2="272" y2="3037.7"/>
	<line class="st0" x1="272.8" y1="3038.7" x2="273.2" y2="3039.1"/>
	<line class="st0" x1="260.9" y1="3039.1" x2="260.9" y2="3039.1"/>
	<line class="st0" x1="260.9" y1="3039.1" x2="262" y2="3037.7"/>
	<line class="st0" x1="271" y1="3036.9" x2="270.6" y2="3036.5"/>
	<line class="st0" x1="271" y1="3036.9" x2="272" y2="3037.7"/>
	<line class="st0" x1="263.3" y1="3036.7" x2="262" y2="3037.7"/>
	<line class="st0" x1="263.3" y1="3036.7" x2="263.5" y2="3036.5"/>
	<line class="st0" x1="270.6" y1="3036.5" x2="268.9" y2="3035.8"/>
	<path class="st0" d="M263.8,3036.4c0.4-0.2,0.7-0.3,1.1-0.5"/>
	<line class="st0" x1="265.2" y1="3035.8" x2="264.9" y2="3035.9"/>
	<line class="st0" x1="263.8" y1="3036.4" x2="263.5" y2="3036.5"/>
	<line class="st0" x1="265.5" y1="3035.8" x2="267" y2="3035.6"/>
	<line class="st0" x1="265.5" y1="3035.8" x2="265.2" y2="3035.8"/>
	<line class="st0" x1="267" y1="3035.6" x2="268.5" y2="3035.8"/>
	<line class="st0" x1="268.9" y1="3035.8" x2="268.5" y2="3035.8"/>
	<line class="st0" x1="616.4" y1="3049.4" x2="614.6" y2="3049.7"/>
	<line class="st0" x1="612.7" y1="3049.6" x2="614.6" y2="3049.7"/>
	<line class="st0" x1="611" y1="3048.9" x2="612.7" y2="3049.6"/>
	<line class="st0" x1="616.4" y1="3049.4" x2="618.1" y2="3048.6"/>
	<line class="st0" x1="609.5" y1="3047.9" x2="611" y2="3048.9"/>
	<line class="st0" x1="619.5" y1="3047.5" x2="619.1" y2="3047.8"/>
	<line class="st0" x1="619.1" y1="3047.8" x2="618.1" y2="3048.6"/>
	<line class="st0" x1="609.5" y1="3047.9" x2="608.3" y2="3046.4"/>
	<path class="st0" d="M620.3,3046.3c-0.1,0.2-0.3,0.4-0.4,0.7"/>
	<line class="st0" x1="620.3" y1="3046.3" x2="620.5" y2="3046"/>
	<line class="st0" x1="619.9" y1="3046.9" x2="619.5" y2="3047.5"/>
	<line class="st0" x1="607.9" y1="3045.5" x2="608.3" y2="3046.4"/>
	<path class="st0" d="M620.6,3045.7c0.2-0.3,0.3-0.7,0.4-1"/>
	<line class="st0" x1="621" y1="3044.7" x2="621.2" y2="3044.2"/>
	<line class="st0" x1="620.6" y1="3045.7" x2="620.5" y2="3046"/>
	<line class="st0" x1="607.9" y1="3045.5" x2="607.5" y2="3044.8"/>
	<line class="st0" x1="607.5" y1="3044.8" x2="607.2" y2="3043"/>
	<line class="st0" x1="621.2" y1="3044.2" x2="621.2" y2="3043.6"/>
	<line class="st0" x1="621.3" y1="3042.5" x2="621.3" y2="3042.4"/>
	<line class="st0" x1="621.3" y1="3042.5" x2="621.2" y2="3043.6"/>
	<line class="st0" x1="607.4" y1="3041.1" x2="607.2" y2="3043"/>
	<line class="st0" x1="621" y1="3040.8" x2="621" y2="3040.6"/>
	<line class="st0" x1="621.3" y1="3042.4" x2="621.3" y2="3042.3"/>
	<line class="st0" x1="621" y1="3040.8" x2="621.3" y2="3042.3"/>
	<line class="st0" x1="607.4" y1="3041.1" x2="608" y2="3039.4"/>
	<line class="st0" x1="620.3" y1="3039" x2="620.2" y2="3038.9"/>
	<line class="st0" x1="621" y1="3040.6" x2="620.9" y2="3040.4"/>
	<line class="st0" x1="620.3" y1="3039" x2="620.9" y2="3040.4"/>
	<line class="st0" x1="609.1" y1="3037.9" x2="608" y2="3039.4"/>
	<line class="st0" x1="619.5" y1="3038" x2="619.1" y2="3037.5"/>
	<path class="st0" d="M619.5,3038c0.2,0.3,0.4,0.5,0.6,0.8"/>
	<line class="st0" x1="620.2" y1="3038.9" x2="620.1" y2="3038.8"/>
	<line class="st0" x1="609.1" y1="3037.9" x2="610.5" y2="3036.7"/>
	<line class="st0" x1="612.2" y1="3035.9" x2="612.2" y2="3035.9"/>
	<line class="st0" x1="612.2" y1="3035.9" x2="610.5" y2="3036.7"/>
	<line class="st0" x1="617.6" y1="3036.4" x2="617.1" y2="3036.2"/>
	<line class="st0" x1="615.8" y1="3035.8" x2="617.1" y2="3036.2"/>
	<line class="st0" x1="612.3" y1="3035.9" x2="613.9" y2="3035.6"/>
	<line class="st0" x1="612.3" y1="3035.9" x2="612.2" y2="3035.9"/>
	<line class="st0" x1="613.9" y1="3035.6" x2="614" y2="3035.6"/>
	<line class="st0" x1="614.1" y1="3035.6" x2="614" y2="3035.6"/>
	<line class="st0" x1="615.8" y1="3035.8" x2="614.1" y2="3035.6"/>
	<line class="st0" x1="241.3" y1="3082.3" x2="241.3" y2="3059.7"/>
	<line class="st0" x1="249.7" y1="3059.7" x2="241.3" y2="3059.7"/>
	<line class="st0" x1="640.1" y1="3082.3" x2="241.3" y2="3082.3"/>
	<line class="st0" x1="640.1" y1="3082.3" x2="640.1" y2="3059.7"/>
	<line class="st0" x1="631.5" y1="3059.7" x2="640.1" y2="3059.7"/>
	<line class="st0" x1="249.7" y1="3022.8" x2="249.7" y2="3059.7"/>
	<line class="st0" x1="631.5" y1="3059.7" x2="631.5" y2="3045.5"/>
	<line class="st0" x1="631.5" y1="3045.5" x2="631.6" y2="3045.5"/>
	<line class="st0" x1="631.6" y1="3045.5" x2="631.6" y2="3022.8"/>
	<line class="st0" x1="249.7" y1="3022.8" x2="241.3" y2="3022.8"/>
	<line class="st0" x1="241.3" y1="2974.6" x2="241.3" y2="3022.8"/>
	<line class="st0" x1="631.6" y1="3022.8" x2="640.1" y2="3022.8"/>
	<line class="st0" x1="249.7" y1="2974.6" x2="241.3" y2="2974.6"/>
	<line class="st0" x1="249.7" y1="2937.8" x2="249.7" y2="2974.6"/>
	<line class="st0" x1="631.6" y1="2937.8" x2="631.6" y2="2974.6"/>
	<line class="st0" x1="249.7" y1="2937.8" x2="241.3" y2="2937.8"/>
	<line class="st0" x1="241.3" y1="2889.6" x2="241.3" y2="2937.8"/>
	<line class="st0" x1="631.6" y1="2937.8" x2="640.1" y2="2937.8"/>
	<line class="st0" x1="241.3" y1="2889.6" x2="249.7" y2="2889.6"/>
	<line class="st0" x1="249.7" y1="2866.9" x2="292.2" y2="2866.9"/>
	<line class="st0" x1="363.1" y1="2866.9" x2="518.2" y2="2866.9"/>
	<line class="st0" x1="363.1" y1="2866.9" x2="363.1" y2="2858.4"/>
	<line class="st0" x1="292.2" y1="2858.4" x2="363.1" y2="2858.4"/>
	<line class="st0" x1="292.2" y1="2866.9" x2="292.2" y2="2858.4"/>
	<line class="st0" x1="518.2" y1="2858.4" x2="518.2" y2="2866.9"/>
	<line class="st0" x1="589.1" y1="2866.9" x2="589.1" y2="2858.4"/>
	<line class="st0" x1="518.2" y1="2858.4" x2="589.1" y2="2858.4"/>
	<line class="st0" x1="249.7" y1="2889.6" x2="249.7" y2="2866.9"/>
	<line class="st0" x1="631.6" y1="2889.6" x2="631.6" y2="2866.9"/>
	<line class="st0" x1="589.1" y1="2866.9" x2="631.6" y2="2866.9"/>
	<line class="st0" x1="640.1" y1="2937.8" x2="640.1" y2="2889.6"/>
	<line class="st0" x1="640.1" y1="2889.6" x2="631.6" y2="2889.6"/>
	<line class="st0" x1="640.1" y1="3022.8" x2="640.1" y2="2974.6"/>
	<line class="st0" x1="631.6" y1="2974.6" x2="640.1" y2="2974.6"/>
	<line class="st0" x1="683.4" y1="3048.8" x2="683.4" y2="3048.8"/>
	<path class="st0" d="M685.8,3046.4c-0.6,1-1.4,1.8-2.4,2.4"/>
	<path class="st0" d="M672.7,3042.7C672.7,3042.7,672.7,3042.7,672.7,3042.7c0,3.9,3.2,7.1,7.1,7.1c1.3,0,2.5-0.4,3.6-1"/>
	<path class="st0" d="M681.3,3035.8c0.9,0.2,1.8,0.6,2.6,1.1"/>
	<path class="st0" d="M673.7,3039.1c0.6-1,1.4-1.8,2.4-2.4"/>
	<path class="st0" d="M673.7,3039.1c-0.6,1.1-1,2.3-1,3.6"/>
	<path class="st0" d="M673.7,3039.1C673.7,3039.1,673.7,3039.1,673.7,3039.1"/>
	<path class="st0" d="M685.6,3038.7c0.5,0.8,0.9,1.6,1.1,2.6"/>
	<path class="st0" d="M679.8,3035.6c-0.5,0-1,0.1-1.5,0.2"/>
	<path class="st0" d="M676.1,3036.7c0.2-0.1,0.3-0.2,0.5-0.3"/>
	<path class="st0" d="M681.3,3035.8c-0.5-0.1-1-0.2-1.5-0.2"/>
	<path class="st0" d="M686.9,3042.7c0-0.5-0.1-1-0.2-1.5"/>
	<path class="st0" d="M686.9,3042.7c0,0.5-0.1,1-0.2,1.5"/>
	<path class="st0" d="M686.7,3044.2c0,0.2-0.1,0.4-0.1,0.6"/>
	<path class="st0" d="M685.6,3038.7c-0.5-0.7-1.1-1.3-1.8-1.8"/>
	<polyline class="st0" points="686.9,3042.7 686.9,3042.7 686.9,3042.7 	"/>
	<path class="st0" d="M678.3,3035.8c-0.2,0-0.4,0.1-0.6,0.1"/>
	<path class="st0" d="M685.8,3046.4c0.1-0.2,0.2-0.3,0.3-0.5"/>
	<line class="st0" x1="679.8" y1="3049.8" x2="681.7" y2="3049.5"/>
	<line class="st0" x1="679.8" y1="3049.8" x2="678" y2="3049.5"/>
	<line class="st0" x1="683.4" y1="3048.8" x2="683.4" y2="3048.8"/>
	<line class="st0" x1="681.7" y1="3049.5" x2="683.4" y2="3048.8"/>
	<line class="st0" x1="676.3" y1="3048.8" x2="678" y2="3049.5"/>
	<line class="st0" x1="683.4" y1="3048.8" x2="683.4" y2="3048.8"/>
	<line class="st0" x1="684.8" y1="3047.7" x2="683.4" y2="3048.8"/>
	<line class="st0" x1="676.3" y1="3048.8" x2="674.8" y2="3047.7"/>
	<line class="st0" x1="685.8" y1="3046.4" x2="684.8" y2="3047.7"/>
	<line class="st0" x1="685.8" y1="3046.4" x2="686" y2="3046.2"/>
	<line class="st0" x1="674.8" y1="3047.7" x2="673.7" y2="3046.2"/>
	<line class="st0" x1="686.6" y1="3044.8" x2="686.7" y2="3044.5"/>
	<path class="st0" d="M686.6,3044.8c-0.1,0.4-0.3,0.8-0.5,1.1"/>
	<line class="st0" x1="686" y1="3046.2" x2="686.1" y2="3045.9"/>
	<line class="st0" x1="673.7" y1="3046.2" x2="673.4" y2="3045.5"/>
	<line class="st0" x1="673.4" y1="3045.5" x2="673" y2="3044.5"/>
	<line class="st0" x1="686.9" y1="3042.7" x2="686.7" y2="3044.2"/>
	<line class="st0" x1="686.9" y1="3042.7" x2="686.9" y2="3042.7"/>
	<line class="st0" x1="686.7" y1="3044.2" x2="686.7" y2="3044.5"/>
	<line class="st0" x1="672.7" y1="3042.7" x2="672.7" y2="3042.7"/>
	<line class="st0" x1="672.7" y1="3042.7" x2="673" y2="3044.5"/>
	<line class="st0" x1="686.9" y1="3042.7" x2="686.7" y2="3041.2"/>
	<line class="st0" x1="686.9" y1="3042.7" x2="686.9" y2="3042.7"/>
	<line class="st0" x1="686.7" y1="3041.2" x2="686.7" y2="3040.8"/>
	<line class="st0" x1="673" y1="3040.8" x2="672.7" y2="3042.7"/>
	<line class="st0" x1="672.7" y1="3042.7" x2="672.7" y2="3042.7"/>
	<line class="st0" x1="686" y1="3039.1" x2="686.7" y2="3040.8"/>
	<line class="st0" x1="673.7" y1="3039.1" x2="673.7" y2="3039.1"/>
	<line class="st0" x1="673" y1="3040.8" x2="673.7" y2="3039.1"/>
	<line class="st0" x1="685.6" y1="3038.7" x2="686" y2="3039.1"/>
	<line class="st0" x1="685.6" y1="3038.7" x2="684.8" y2="3037.7"/>
	<line class="st0" x1="673.7" y1="3039.1" x2="673.7" y2="3039.1"/>
	<line class="st0" x1="673.7" y1="3039.1" x2="674.8" y2="3037.7"/>
	<line class="st0" x1="683.8" y1="3036.9" x2="684.8" y2="3037.7"/>
	<line class="st0" x1="683.8" y1="3036.9" x2="683.4" y2="3036.5"/>
	<line class="st0" x1="676.1" y1="3036.7" x2="674.8" y2="3037.7"/>
	<line class="st0" x1="676.1" y1="3036.7" x2="676.3" y2="3036.5"/>
	<line class="st0" x1="683.4" y1="3036.5" x2="681.7" y2="3035.8"/>
	<path class="st0" d="M676.6,3036.4c0.4-0.2,0.7-0.3,1.1-0.5"/>
	<line class="st0" x1="676.6" y1="3036.4" x2="676.3" y2="3036.5"/>
	<line class="st0" x1="678" y1="3035.8" x2="677.7" y2="3035.9"/>
	<line class="st0" x1="678.3" y1="3035.8" x2="679.8" y2="3035.6"/>
	<line class="st0" x1="678.3" y1="3035.8" x2="678" y2="3035.8"/>
	<line class="st0" x1="679.8" y1="3035.6" x2="681.3" y2="3035.8"/>
	<line class="st0" x1="681.7" y1="3035.8" x2="681.3" y2="3035.8"/>
	<line class="st0" x1="1027.4" y1="3049.7" x2="1029.2" y2="3049.4"/>
	<line class="st0" x1="1027.4" y1="3049.7" x2="1025.5" y2="3049.6"/>
	<line class="st0" x1="1023.8" y1="3048.9" x2="1025.5" y2="3049.6"/>
	<line class="st0" x1="1030.8" y1="3048.6" x2="1029.2" y2="3049.4"/>
	<line class="st0" x1="1023.8" y1="3048.9" x2="1022.3" y2="3047.9"/>
	<line class="st0" x1="1030.8" y1="3048.6" x2="1032.3" y2="3047.5"/>
	<line class="st0" x1="1021.1" y1="3046.4" x2="1022.3" y2="3047.9"/>
	<line class="st0" x1="1033.3" y1="3046" x2="1032.3" y2="3047.5"/>
	<line class="st0" x1="1021.1" y1="3046.4" x2="1020.7" y2="3045.5"/>
	<line class="st0" x1="1033.3" y1="3046" x2="1034" y2="3044.2"/>
	<line class="st0" x1="1020.3" y1="3044.8" x2="1020.7" y2="3045.5"/>
	<line class="st0" x1="1020" y1="3043" x2="1020.3" y2="3044.8"/>
	<line class="st0" x1="1034" y1="3044.2" x2="1034.1" y2="3042.4"/>
	<line class="st0" x1="1020" y1="3043" x2="1020.2" y2="3041.1"/>
	<line class="st0" x1="1034.1" y1="3042.4" x2="1033.8" y2="3040.6"/>
	<line class="st0" x1="1020.8" y1="3039.4" x2="1020.2" y2="3041.1"/>
	<line class="st0" x1="1033" y1="3038.9" x2="1033.8" y2="3040.6"/>
	<line class="st0" x1="1020.8" y1="3039.4" x2="1021.9" y2="3037.9"/>
	<line class="st0" x1="1033" y1="3038.9" x2="1031.9" y2="3037.5"/>
	<line class="st0" x1="1023.3" y1="3036.7" x2="1021.9" y2="3037.9"/>
	<line class="st0" x1="1030.4" y1="3036.4" x2="1031.9" y2="3037.5"/>
	<line class="st0" x1="1023.3" y1="3036.7" x2="1025" y2="3035.9"/>
	<line class="st0" x1="1030.4" y1="3036.4" x2="1028.6" y2="3035.8"/>
	<line class="st0" x1="1026.8" y1="3035.6" x2="1025" y2="3035.9"/>
	<line class="st0" x1="1026.8" y1="3035.6" x2="1028.6" y2="3035.8"/>
	<line class="st0" x1="654.1" y1="3059.7" x2="654.1" y2="3082.3"/>
	<line class="st0" x1="1052.9" y1="3082.3" x2="654.1" y2="3082.3"/>
	<line class="st0" x1="662.5" y1="3059.7" x2="654.1" y2="3059.7"/>
	<line class="st0" x1="662.5" y1="3059.7" x2="662.5" y2="3022.8"/>
	<line class="st0" x1="1044.3" y1="3059.7" x2="1044.3" y2="3045.5"/>
	<line class="st0" x1="1044.3" y1="3045.5" x2="1044.4" y2="3045.5"/>
	<line class="st0" x1="1044.4" y1="3045.5" x2="1044.4" y2="3022.8"/>
	<line class="st0" x1="654.1" y1="3022.8" x2="662.5" y2="3022.8"/>
	<line class="st0" x1="654.1" y1="3022.8" x2="654.1" y2="2974.6"/>
	<line class="st0" x1="1044.4" y1="3022.8" x2="1052.9" y2="3022.8"/>
	<line class="st0" x1="654.1" y1="2974.6" x2="662.5" y2="2974.6"/>
	<line class="st0" x1="662.5" y1="2974.6" x2="662.5" y2="2937.8"/>
	<line class="st0" x1="1044.4" y1="2937.8" x2="1044.4" y2="2974.6"/>
	<line class="st0" x1="654.1" y1="2937.8" x2="662.5" y2="2937.8"/>
	<line class="st0" x1="654.1" y1="2937.8" x2="654.1" y2="2889.6"/>
	<line class="st0" x1="1044.4" y1="2937.8" x2="1052.9" y2="2937.8"/>
	<line class="st0" x1="654.1" y1="2889.6" x2="662.5" y2="2889.6"/>
	<line class="st0" x1="705" y1="2866.9" x2="662.5" y2="2866.9"/>
	<line class="st0" x1="775.9" y1="2866.9" x2="931" y2="2866.9"/>
	<line class="st0" x1="775.9" y1="2866.9" x2="775.9" y2="2858.4"/>
	<line class="st0" x1="705" y1="2858.4" x2="775.9" y2="2858.4"/>
	<line class="st0" x1="705" y1="2866.9" x2="705" y2="2858.4"/>
	<line class="st0" x1="931" y1="2866.9" x2="931" y2="2858.4"/>
	<line class="st0" x1="1001.9" y1="2866.9" x2="1001.9" y2="2858.4"/>
	<line class="st0" x1="1001.9" y1="2858.4" x2="931" y2="2858.4"/>
	<line class="st0" x1="662.5" y1="2866.9" x2="662.5" y2="2889.6"/>
	<line class="st0" x1="1044.4" y1="2889.6" x2="1044.4" y2="2866.9"/>
	<line class="st0" x1="1001.9" y1="2866.9" x2="1044.4" y2="2866.9"/>
	<line class="st0" x1="1052.9" y1="2937.8" x2="1052.9" y2="2889.6"/>
	<line class="st0" x1="1052.9" y1="2889.6" x2="1044.4" y2="2889.6"/>
	<line class="st0" x1="1052.9" y1="3022.8" x2="1052.9" y2="2974.6"/>
	<line class="st0" x1="1044.4" y1="2974.6" x2="1052.9" y2="2974.6"/>
	<line class="st0" x1="1052.9" y1="3082.3" x2="1052.9" y2="3059.7"/>
	<line class="st0" x1="1044.3" y1="3059.7" x2="1052.9" y2="3059.7"/>
	<line class="st0" x1="1043.9" y1="2819.7" x2="1043.9" y2="2771.5"/>
	<line class="st0" x1="1043.9" y1="2819.7" x2="1035.4" y2="2819.7"/>
	<line class="st0" x1="653.5" y1="2819.7" x2="645" y2="2819.7"/>
	<line class="st0" x1="645" y1="2771.5" x2="645" y2="2819.7"/>
	<line class="st0" x1="1035.4" y1="2771.5" x2="1043.9" y2="2771.5"/>
	<line class="st0" x1="653.5" y1="2771.5" x2="645" y2="2771.5"/>
	<line class="st0" x1="1035.4" y1="2734.6" x2="1035.4" y2="2771.5"/>
	<line class="st0" x1="653.5" y1="2734.6" x2="653.5" y2="2771.5"/>
	<line class="st0" x1="1035.4" y1="2842.3" x2="653.5" y2="2842.3"/>
	<line class="st0" x1="653.5" y1="2842.3" x2="653.5" y2="2819.7"/>
	<line class="st0" x1="1035.4" y1="2819.7" x2="1035.4" y2="2842.3"/>
	<line class="st0" x1="1043.9" y1="2734.6" x2="1043.9" y2="2686.4"/>
	<line class="st0" x1="1035.4" y1="2734.6" x2="1043.9" y2="2734.6"/>
	<line class="st0" x1="653.5" y1="2734.6" x2="645" y2="2734.6"/>
	<line class="st0" x1="645" y1="2686.4" x2="645" y2="2734.6"/>
	<line class="st0" x1="1043.9" y1="2686.4" x2="1035.4" y2="2686.4"/>
	<line class="st0" x1="645" y1="2686.4" x2="653.5" y2="2686.4"/>
	<line class="st0" x1="1035.4" y1="2686.4" x2="1035.4" y2="2663.8"/>
	<line class="st0" x1="992.9" y1="2663.8" x2="1035.4" y2="2663.8"/>
	<line class="st0" x1="922" y1="2655.3" x2="922" y2="2663.8"/>
	<line class="st0" x1="922" y1="2655.3" x2="992.9" y2="2655.3"/>
	<line class="st0" x1="992.9" y1="2663.8" x2="992.9" y2="2655.3"/>
	<line class="st0" x1="766.9" y1="2663.8" x2="766.9" y2="2655.3"/>
	<line class="st0" x1="696" y1="2663.8" x2="696" y2="2655.3"/>
	<line class="st0" x1="696" y1="2655.3" x2="766.9" y2="2655.3"/>
	<line class="st0" x1="653.5" y1="2686.4" x2="653.5" y2="2663.8"/>
	<line class="st0" x1="766.9" y1="2663.8" x2="922" y2="2663.8"/>
	<line class="st0" x1="653.5" y1="2663.8" x2="696" y2="2663.8"/>
	<line class="st0" x1="621.2" y1="2821.5" x2="621.2" y2="2773.3"/>
	<line class="st0" x1="621.2" y1="2821.5" x2="612.7" y2="2821.5"/>
	<line class="st0" x1="222.2" y1="2821.5" x2="230.7" y2="2821.5"/>
	<line class="st0" x1="222.2" y1="2773.3" x2="222.2" y2="2821.5"/>
	<line class="st0" x1="612.7" y1="2773.3" x2="621.2" y2="2773.3"/>
	<line class="st0" x1="230.7" y1="2773.3" x2="222.2" y2="2773.3"/>
	<line class="st0" x1="612.7" y1="2736.5" x2="612.7" y2="2773.3"/>
	<line class="st0" x1="230.7" y1="2773.3" x2="230.7" y2="2736.5"/>
	<line class="st0" x1="612.7" y1="2844.2" x2="230.7" y2="2844.2"/>
	<line class="st0" x1="230.7" y1="2821.5" x2="230.7" y2="2844.2"/>
	<line class="st0" x1="612.7" y1="2844.2" x2="612.7" y2="2821.5"/>
	<line class="st0" x1="621.2" y1="2736.5" x2="621.2" y2="2688.3"/>
	<line class="st0" x1="612.7" y1="2736.5" x2="621.2" y2="2736.5"/>
	<line class="st0" x1="230.7" y1="2736.5" x2="222.2" y2="2736.5"/>
	<line class="st0" x1="222.2" y1="2688.3" x2="222.2" y2="2736.5"/>
	<line class="st0" x1="621.2" y1="2688.3" x2="612.7" y2="2688.3"/>
	<line class="st0" x1="222.2" y1="2688.3" x2="230.7" y2="2688.3"/>
	<line class="st0" x1="612.7" y1="2688.3" x2="612.7" y2="2665.6"/>
	<line class="st0" x1="570.2" y1="2665.6" x2="612.7" y2="2665.6"/>
	<line class="st0" x1="499.3" y1="2665.6" x2="499.3" y2="2657.1"/>
	<line class="st0" x1="499.3" y1="2657.1" x2="570.2" y2="2657.1"/>
	<line class="st0" x1="570.2" y1="2665.6" x2="570.2" y2="2657.1"/>
	<line class="st0" x1="344.1" y1="2665.6" x2="344.1" y2="2657.1"/>
	<line class="st0" x1="273.3" y1="2665.6" x2="273.3" y2="2657.1"/>
	<line class="st0" x1="273.3" y1="2657.1" x2="344.1" y2="2657.1"/>
	<line class="st0" x1="230.7" y1="2688.3" x2="230.7" y2="2665.6"/>
	<line class="st0" x1="344.1" y1="2665.6" x2="499.3" y2="2665.6"/>
	<line class="st0" x1="230.7" y1="2665.6" x2="273.3" y2="2665.6"/>
	<line class="st0" x1="251.5" y1="3346.5" x2="243" y2="3346.5"/>
	<line class="st0" x1="243" y1="3346.5" x2="243" y2="3377.7"/>
	<line class="st0" x1="274.2" y1="3377.7" x2="243" y2="3377.7"/>
	<line class="st0" x1="251.5" y1="3346.5" x2="251.5" y2="3298.3"/>
	<line class="st0" x1="243" y1="3261.5" x2="251.5" y2="3261.5"/>
	<line class="st0" x1="243" y1="3298.3" x2="243" y2="3261.5"/>
	<line class="st0" x1="243" y1="3298.3" x2="251.5" y2="3298.3"/>
	<line class="st0" x1="243" y1="3176.4" x2="251.5" y2="3176.4"/>
	<line class="st0" x1="243" y1="3213.3" x2="243" y2="3176.4"/>
	<line class="st0" x1="243" y1="3213.3" x2="251.5" y2="3213.3"/>
	<line class="st0" x1="1657.5" y1="3369.2" x2="1657.5" y2="3377.7"/>
	<line class="st0" x1="1657.5" y1="3377.7" x2="1600.8" y2="3377.7"/>
	<line class="st0" x1="1759.5" y1="3176.4" x2="1751" y2="3176.4"/>
	<line class="st0" x1="1751" y1="3213.3" x2="1759.5" y2="3213.3"/>
	<line class="st0" x1="1759.5" y1="3213.3" x2="1759.5" y2="3176.4"/>
	<line class="st0" x1="1751" y1="3346.5" x2="1751" y2="3298.3"/>
	<line class="st0" x1="1751" y1="3213.3" x2="1751" y2="3261.5"/>
	<line class="st0" x1="1751" y1="3298.3" x2="1759.5" y2="3298.3"/>
	<line class="st0" x1="1759.5" y1="3298.3" x2="1759.5" y2="3261.5"/>
	<line class="st0" x1="1751" y1="3261.5" x2="1759.5" y2="3261.5"/>
	<line class="st0" x1="251.5" y1="3153.7" x2="1751" y2="3153.7"/>
	<line class="st0" x1="251.5" y1="3153.7" x2="251.5" y2="3176.4"/>
	<line class="st0" x1="251.5" y1="3261.5" x2="251.5" y2="3213.3"/>
	<line class="st0" x1="274.2" y1="3369.2" x2="274.2" y2="3377.7"/>
	<line class="st0" x1="345" y1="3369.2" x2="274.2" y2="3369.2"/>
	<line class="st0" x1="345" y1="3369.2" x2="345" y2="3377.7"/>
	<line class="st0" x1="472.6" y1="3369.2" x2="401.7" y2="3369.2"/>
	<line class="st0" x1="472.6" y1="3369.2" x2="472.6" y2="3377.7"/>
	<line class="st0" x1="828.3" y1="3369.2" x2="757.5" y2="3369.2"/>
	<line class="st0" x1="828.3" y1="3369.2" x2="828.3" y2="3377.7"/>
	<line class="st0" x1="1245" y1="3369.2" x2="1174.2" y2="3369.2"/>
	<line class="st0" x1="1245" y1="3369.2" x2="1245" y2="3377.7"/>
	<line class="st0" x1="1600.8" y1="3369.2" x2="1529.9" y2="3369.2"/>
	<line class="st0" x1="1600.8" y1="3369.2" x2="1600.8" y2="3377.7"/>
	<line class="st0" x1="1728.3" y1="3369.2" x2="1657.5" y2="3369.2"/>
	<line class="st0" x1="1728.3" y1="3369.2" x2="1728.3" y2="3377.7"/>
	<line class="st0" x1="1759.5" y1="3377.7" x2="1728.3" y2="3377.7"/>
	<line class="st0" x1="1751" y1="3176.4" x2="1751" y2="3153.7"/>
	<line class="st0" x1="1759.5" y1="3377.7" x2="1759.5" y2="3346.5"/>
	<line class="st0" x1="1751" y1="3346.5" x2="1759.5" y2="3346.5"/>
	<line class="st0" x1="1529.9" y1="3369.2" x2="1529.9" y2="3377.7"/>
	<line class="st0" x1="1529.9" y1="3377.7" x2="1245" y2="3377.7"/>
	<line class="st0" x1="1174.2" y1="3369.2" x2="1174.2" y2="3377.7"/>
	<line class="st0" x1="1174.2" y1="3377.7" x2="828.3" y2="3377.7"/>
	<line class="st0" x1="757.5" y1="3369.2" x2="757.5" y2="3377.7"/>
	<line class="st0" x1="757.5" y1="3377.7" x2="472.6" y2="3377.7"/>
	<line class="st0" x1="401.7" y1="3369.2" x2="401.7" y2="3377.7"/>
	<line class="st0" x1="401.7" y1="3377.7" x2="345" y2="3377.7"/>
	<line class="st0" x1="1810.9" y1="752.4" x2="294.4" y2="752.4"/>
	<line class="st0" x1="1810.9" y1="752.4" x2="1810.9" y2="729.7"/>
	<line class="st0" x1="1802.4" y1="729.7" x2="1810.9" y2="729.7"/>
	<line class="st0" x1="1802.4" y1="729.7" x2="1802.4" y2="681.5"/>
	<line class="st0" x1="1802.4" y1="644.6" x2="1802.4" y2="596.4"/>
	<line class="st0" x1="1708.9" y1="573.8" x2="1779.7" y2="573.8"/>
	<line class="st0" x1="1708.9" y1="573.8" x2="1708.9" y2="565.3"/>
	<line class="st0" x1="1581.3" y1="573.8" x2="1652.2" y2="573.8"/>
	<line class="st0" x1="1581.3" y1="573.8" x2="1581.3" y2="565.3"/>
	<line class="st0" x1="1225.6" y1="573.8" x2="1296.4" y2="573.8"/>
	<line class="st0" x1="1225.6" y1="573.8" x2="1225.6" y2="565.3"/>
	<line class="st0" x1="808.9" y1="573.8" x2="879.7" y2="573.8"/>
	<line class="st0" x1="808.9" y1="573.8" x2="808.9" y2="565.3"/>
	<line class="st0" x1="453.1" y1="573.8" x2="524" y2="573.8"/>
	<line class="st0" x1="453.1" y1="573.8" x2="453.1" y2="565.3"/>
	<line class="st0" x1="325.6" y1="573.8" x2="396.4" y2="573.8"/>
	<line class="st0" x1="325.6" y1="565.3" x2="325.6" y2="573.8"/>
	<line class="st0" x1="302.9" y1="729.7" x2="294.4" y2="729.7"/>
	<line class="st0" x1="294.4" y1="729.7" x2="294.4" y2="752.4"/>
	<line class="st0" x1="302.9" y1="681.5" x2="294.4" y2="681.5"/>
	<line class="st0" x1="302.9" y1="644.6" x2="294.4" y2="644.6"/>
	<line class="st0" x1="294.4" y1="644.6" x2="294.4" y2="681.5"/>
	<line class="st0" x1="325.6" y1="565.3" x2="294.4" y2="565.3"/>
	<line class="st0" x1="302.9" y1="681.5" x2="302.9" y2="729.7"/>
	<line class="st0" x1="302.9" y1="596.4" x2="302.9" y2="644.6"/>
	<line class="st0" x1="294.4" y1="565.3" x2="294.4" y2="596.4"/>
	<line class="st0" x1="302.9" y1="596.4" x2="294.4" y2="596.4"/>
	<line class="st0" x1="396.4" y1="573.8" x2="396.4" y2="565.3"/>
	<line class="st0" x1="396.4" y1="565.3" x2="453.1" y2="565.3"/>
	<line class="st0" x1="524" y1="573.8" x2="524" y2="565.3"/>
	<line class="st0" x1="524" y1="565.3" x2="808.9" y2="565.3"/>
	<line class="st0" x1="879.7" y1="573.8" x2="879.7" y2="565.3"/>
	<line class="st0" x1="879.7" y1="565.3" x2="1225.6" y2="565.3"/>
	<line class="st0" x1="1296.4" y1="573.8" x2="1296.4" y2="565.3"/>
	<line class="st0" x1="1296.4" y1="565.3" x2="1581.3" y2="565.3"/>
	<line class="st0" x1="1652.2" y1="573.8" x2="1652.2" y2="565.3"/>
	<line class="st0" x1="1652.2" y1="565.3" x2="1708.9" y2="565.3"/>
	<line class="st0" x1="1802.4" y1="596.4" x2="1810.9" y2="596.4"/>
	<line class="st0" x1="1810.9" y1="596.4" x2="1810.9" y2="565.3"/>
	<line class="st0" x1="1779.7" y1="565.3" x2="1810.9" y2="565.3"/>
	<line class="st0" x1="1779.7" y1="573.8" x2="1779.7" y2="565.3"/>
	<line class="st0" x1="1802.4" y1="681.5" x2="1810.9" y2="681.5"/>
	<line class="st0" x1="1810.9" y1="681.5" x2="1810.9" y2="644.6"/>
	<line class="st0" x1="1802.4" y1="644.6" x2="1810.9" y2="644.6"/>
	<line class="st0" x1="808.9" y1="139.4" x2="808.9" y2="147.9"/>
	<line class="st0" x1="808.9" y1="139.4" x2="879.7" y2="139.4"/>
	<line class="st0" x1="879.7" y1="147.9" x2="879.7" y2="139.4"/>
	<line class="st0" x1="524" y1="147.9" x2="808.9" y2="147.9"/>
	<line class="st0" x1="325.6" y1="139.4" x2="325.6" y2="147.9"/>
	<line class="st0" x1="325.6" y1="139.4" x2="396.4" y2="139.4"/>
	<line class="st0" x1="396.4" y1="147.9" x2="396.4" y2="139.4"/>
	<line class="st0" x1="294.4" y1="147.9" x2="325.6" y2="147.9"/>
	<line class="st0" x1="396.4" y1="147.9" x2="453.1" y2="147.9"/>
	<line class="st0" x1="1225.6" y1="529.8" x2="879.7" y2="529.8"/>
	<line class="st0" x1="808.9" y1="538.3" x2="808.9" y2="529.8"/>
	<line class="st0" x1="879.7" y1="538.3" x2="879.7" y2="529.8"/>
	<line class="st0" x1="879.7" y1="538.3" x2="808.9" y2="538.3"/>
	<line class="st0" x1="294.4" y1="487.3" x2="294.4" y2="529.8"/>
	<line class="st0" x1="302.9" y1="487.3" x2="294.4" y2="487.3"/>
	<line class="st0" x1="325.6" y1="529.8" x2="294.4" y2="529.8"/>
	<line class="st0" x1="325.6" y1="538.3" x2="325.6" y2="529.8"/>
	<line class="st0" x1="396.4" y1="538.3" x2="396.4" y2="529.8"/>
	<line class="st0" x1="396.4" y1="538.3" x2="325.6" y2="538.3"/>
	<line class="st0" x1="808.9" y1="529.8" x2="524" y2="529.8"/>
	<line class="st0" x1="453.1" y1="529.8" x2="396.4" y2="529.8"/>
	<line class="st0" x1="453.1" y1="538.3" x2="453.1" y2="529.8"/>
	<line class="st0" x1="524" y1="538.3" x2="524" y2="529.8"/>
	<line class="st0" x1="524" y1="538.3" x2="453.1" y2="538.3"/>
	<line class="st0" x1="1296.4" y1="538.3" x2="1296.4" y2="529.8"/>
	<line class="st0" x1="1296.4" y1="538.3" x2="1225.6" y2="538.3"/>
	<line class="st0" x1="1225.6" y1="538.3" x2="1225.6" y2="529.8"/>
	<line class="st0" x1="1581.3" y1="538.3" x2="1581.3" y2="529.8"/>
	<line class="st0" x1="1652.2" y1="538.3" x2="1652.2" y2="529.8"/>
	<line class="st0" x1="1652.2" y1="538.3" x2="1581.3" y2="538.3"/>
	<line class="st0" x1="1708.9" y1="538.3" x2="1708.9" y2="529.8"/>
	<line class="st0" x1="1779.7" y1="529.8" x2="1779.7" y2="538.3"/>
	<line class="st0" x1="1779.7" y1="538.3" x2="1708.9" y2="538.3"/>
	<line class="st0" x1="294.4" y1="261.3" x2="294.4" y2="416.4"/>
	<line class="st0" x1="302.9" y1="261.3" x2="294.4" y2="261.3"/>
	<line class="st0" x1="302.9" y1="416.4" x2="294.4" y2="416.4"/>
	<line class="st0" x1="1802.4" y1="416.4" x2="1802.4" y2="487.3"/>
	<line class="st0" x1="302.9" y1="416.4" x2="302.9" y2="487.3"/>
	<line class="st0" x1="1810.9" y1="487.3" x2="1802.4" y2="487.3"/>
	<line class="st0" x1="1810.9" y1="487.3" x2="1810.9" y2="529.8"/>
	<line class="st0" x1="1581.3" y1="529.8" x2="1296.4" y2="529.8"/>
	<line class="st0" x1="1708.9" y1="529.8" x2="1652.2" y2="529.8"/>
	<line class="st0" x1="1810.9" y1="529.8" x2="1779.7" y2="529.8"/>
	<line class="st0" x1="294.4" y1="147.9" x2="294.4" y2="190.4"/>
	<line class="st0" x1="302.9" y1="190.4" x2="294.4" y2="190.4"/>
	<line class="st0" x1="1802.4" y1="190.4" x2="1802.4" y2="261.3"/>
	<line class="st0" x1="302.9" y1="190.4" x2="302.9" y2="261.3"/>
	<line class="st0" x1="1810.9" y1="261.3" x2="1802.4" y2="261.3"/>
	<line class="st0" x1="1810.9" y1="261.3" x2="1810.9" y2="416.4"/>
	<line class="st0" x1="1810.9" y1="416.4" x2="1802.4" y2="416.4"/>
	<line class="st0" x1="1225.6" y1="139.4" x2="1296.4" y2="139.4"/>
	<line class="st0" x1="1296.4" y1="147.9" x2="1296.4" y2="139.4"/>
	<line class="st0" x1="1225.6" y1="139.4" x2="1225.6" y2="147.9"/>
	<line class="st0" x1="1296.4" y1="147.9" x2="1581.3" y2="147.9"/>
	<line class="st0" x1="1652.2" y1="147.9" x2="1708.9" y2="147.9"/>
	<line class="st0" x1="1810.9" y1="147.9" x2="1779.7" y2="147.9"/>
	<line class="st0" x1="1810.9" y1="190.4" x2="1810.9" y2="147.9"/>
	<line class="st0" x1="879.7" y1="147.9" x2="1225.6" y2="147.9"/>
	<line class="st0" x1="1802.4" y1="190.4" x2="1810.9" y2="190.4"/>
	<line class="st0" x1="453.1" y1="139.4" x2="453.1" y2="147.9"/>
	<line class="st0" x1="453.1" y1="139.4" x2="524" y2="139.4"/>
	<line class="st0" x1="524" y1="147.9" x2="524" y2="139.4"/>
	<line class="st0" x1="1708.9" y1="139.4" x2="1708.9" y2="147.9"/>
	<line class="st0" x1="1708.9" y1="139.4" x2="1779.7" y2="139.4"/>
	<line class="st0" x1="1779.7" y1="147.9" x2="1779.7" y2="139.4"/>
	<line class="st0" x1="1581.3" y1="139.4" x2="1581.3" y2="147.9"/>
	<line class="st0" x1="1581.3" y1="139.4" x2="1652.2" y2="139.4"/>
	<line class="st0" x1="1652.2" y1="147.9" x2="1652.2" y2="139.4"/>
	<line class="st0" x1="294.4" y1="775" x2="1810.9" y2="775"/>
	<line class="st0" x1="294.4" y1="797.7" x2="294.4" y2="775"/>
	<line class="st0" x1="294.4" y1="797.7" x2="302.9" y2="797.7"/>
	<line class="st0" x1="302.9" y1="845.9" x2="302.9" y2="797.7"/>
	<line class="st0" x1="302.9" y1="930.9" x2="302.9" y2="882.7"/>
	<line class="st0" x1="396.4" y1="953.6" x2="325.6" y2="953.6"/>
	<line class="st0" x1="396.4" y1="953.6" x2="396.4" y2="962.1"/>
	<line class="st0" x1="524" y1="953.6" x2="453.1" y2="953.6"/>
	<line class="st0" x1="524" y1="953.6" x2="524" y2="962.1"/>
	<line class="st0" x1="879.7" y1="953.6" x2="808.9" y2="953.6"/>
	<line class="st0" x1="879.7" y1="953.6" x2="879.7" y2="962.1"/>
	<line class="st0" x1="1296.4" y1="953.6" x2="1225.6" y2="953.6"/>
	<line class="st0" x1="1296.4" y1="953.6" x2="1296.4" y2="962.1"/>
	<line class="st0" x1="1652.2" y1="953.6" x2="1581.3" y2="953.6"/>
	<line class="st0" x1="1652.2" y1="953.6" x2="1652.2" y2="962.1"/>
	<line class="st0" x1="1779.7" y1="953.6" x2="1708.9" y2="953.6"/>
	<line class="st0" x1="1779.7" y1="953.6" x2="1779.7" y2="962.1"/>
	<line class="st0" x1="1802.4" y1="797.7" x2="1810.9" y2="797.7"/>
	<line class="st0" x1="1810.9" y1="775" x2="1810.9" y2="797.7"/>
	<line class="st0" x1="1802.4" y1="930.9" x2="1802.4" y2="882.7"/>
	<line class="st0" x1="1802.4" y1="845.9" x2="1810.9" y2="845.9"/>
	<line class="st0" x1="1802.4" y1="882.7" x2="1810.9" y2="882.7"/>
	<line class="st0" x1="1810.9" y1="882.7" x2="1810.9" y2="845.9"/>
	<line class="st0" x1="1810.9" y1="962.1" x2="1779.7" y2="962.1"/>
	<line class="st0" x1="1802.4" y1="845.9" x2="1802.4" y2="797.7"/>
	<line class="st0" x1="1810.9" y1="962.1" x2="1810.9" y2="930.9"/>
	<line class="st0" x1="1802.4" y1="930.9" x2="1810.9" y2="930.9"/>
	<line class="st0" x1="1708.9" y1="953.6" x2="1708.9" y2="962.1"/>
	<line class="st0" x1="1708.9" y1="962.1" x2="1652.2" y2="962.1"/>
	<line class="st0" x1="1581.3" y1="953.6" x2="1581.3" y2="962.1"/>
	<line class="st0" x1="1581.3" y1="962.1" x2="1296.4" y2="962.1"/>
	<line class="st0" x1="1225.6" y1="953.6" x2="1225.6" y2="962.1"/>
	<line class="st0" x1="1225.6" y1="962.1" x2="879.7" y2="962.1"/>
	<line class="st0" x1="808.9" y1="953.6" x2="808.9" y2="962.1"/>
	<line class="st0" x1="808.9" y1="962.1" x2="524" y2="962.1"/>
	<line class="st0" x1="453.1" y1="953.6" x2="453.1" y2="962.1"/>
	<line class="st0" x1="453.1" y1="962.1" x2="396.4" y2="962.1"/>
	<line class="st0" x1="302.9" y1="930.9" x2="294.4" y2="930.9"/>
	<line class="st0" x1="294.4" y1="930.9" x2="294.4" y2="962.1"/>
	<line class="st0" x1="294.4" y1="962.1" x2="325.6" y2="962.1"/>
	<line class="st0" x1="325.6" y1="953.6" x2="325.6" y2="962.1"/>
	<line class="st0" x1="294.4" y1="845.9" x2="302.9" y2="845.9"/>
	<line class="st0" x1="294.4" y1="882.7" x2="294.4" y2="845.9"/>
	<line class="st0" x1="294.4" y1="882.7" x2="302.9" y2="882.7"/>
</g>
<g id="Defpoints">
</g>
</svg>
